<svg width="1288" height="840" viewBox="10 0 1282 840" fill="none" xmlns="http://www.w3.org/2000/svg">
<g clip-path="url(#clip0_181_11417)" filter="url(#filter0_d_181_11417)">
<rect x="4" width="1300" height="840" fill="#00151C"/>
<g filter="url(#filter1_f_181_11417)">
<path d="M393.5 47.5C337.5 48.7 309.833 76.6666 303 90.5C300.833 121.167 307.6 181.2 352 176C407.5 169.5 403 172 462 192C521 212 508.5 249 562 233C615.5 217 636.5 204.5 623.5 152C610.5 99.5 605.5 110 538 63.5C470.5 17 463.5 46 393.5 47.5Z" fill="#194444"/>
<path d="M389.5 310C358.3 290.8 295.5 302 268 310C262.167 310 249.9 315 247.5 335C244.5 360 277 373.5 283 416.5C289 459.5 324.5 458 365 433.5C405.5 409 417.5 417.5 432.5 358C447.5 298.5 428.5 334 389.5 310Z" fill="#115271"/>
<path d="M512.5 184C445.3 186 439.167 237.167 444.5 262.5C449.167 272.333 469.3 298.5 512.5 324.5C566.5 357 537 365 584 406.5C631 448 678.5 381.5 712.5 315C746.5 248.5 729.5 232.5 697 156C664.5 79.5 670.5 128.5 616 140.5C561.5 152.5 596.5 181.5 512.5 184Z" fill="#47B8B1"/>
<path d="M463.5 238.5C449.1 224.5 425.5 248.667 415.5 262.5C404.5 273.333 385 300.6 395 323C407.5 351 435 328.5 469 327.5C503 326.5 489.5 312.5 484 280C478.5 247.5 481.5 256 463.5 238.5Z" fill="#4295B0"/>
<path d="M733.5 100C700.7 90 670.5 151.833 659.5 184C655.333 201.5 652.2 237.6 673 242C699 247.5 706.5 256 747.5 304.5C788.5 353 812 339 893.5 319.5C975 300 952.5 312.5 963.5 231.5C974.5 150.5 920.5 194.5 862 147.5C803.5 100.5 774.5 112.5 733.5 100Z" fill="#4295B0"/>
<path d="M863.5 47.5C855.9 47.5 828 59.1667 815 65C812.667 81.8334 808 122.5 808 150.5C808 185.5 863.5 185.5 926 150.5C988.5 115.5 937.5 119 911 70.5C884.5 22 873 47.5 863.5 47.5Z" fill="#56B454"/>
<path d="M1033.49 118.114C998.14 120.795 1001.8 142.913 1008.05 153.637C1020.1 162.015 1059.39 184.937 1120.18 209.602C1196.16 240.433 1153.32 212.618 1208.88 209.602C1264.45 206.586 1239.68 156.653 1230.64 118.114C1221.6 79.5757 1224.28 44.3881 1190.47 6.18443C1156.67 -32.0192 1179.09 27.9672 1162.36 71.1977C1145.62 114.428 1156.33 99.3477 1114.49 118.114C1072.65 136.881 1077.67 114.763 1033.49 118.114Z" fill="#92FFFF"/>
<path d="M989 211C968.6 202.6 941.167 220.833 930 231C930 237.5 932.9 253.2 944.5 264C959 277.5 968.5 270.5 1005 291C1041.5 311.5 1041.5 257 1036 238.5C1030.5 220 1014.5 221.5 989 211Z" fill="#194444"/>
<path d="M742.427 402.17C734.305 410.053 711.534 405.455 701.164 402.17C699.636 402.17 694.287 401.448 685.117 398.558C673.655 394.945 673 402.17 673 444.21C673 486.25 693.959 494.789 701.164 537.814C708.368 580.839 742.427 565.074 790.567 559.819C838.708 554.564 809.889 538.471 850.497 494.789C891.106 451.107 883.573 469.171 876.041 454.392C868.509 439.612 859.339 402.17 844.275 391.004C829.211 379.837 814.474 369.984 785 363.743C755.526 357.503 752.579 392.317 742.427 402.17Z" fill="#194444"/>
<path d="M579.999 404.814C519.066 389.597 551.937 413.625 531.092 432.847C527.083 429.91 510.086 428.602 474.168 446.863C429.27 469.689 474.97 471.692 531.092 514.141C587.214 556.589 569.977 516.143 634.117 501.726C698.256 487.31 657.768 476.898 664.583 450.868C671.398 424.837 640.931 420.032 579.999 404.814Z" fill="#115271"/>
<path d="M313.5 420C261.5 406.5 248 437 223.5 454.5C210.5 458 186.1 474.5 192.5 512.5C200.5 560 213.5 514 264 496C314.5 478 300.5 491 356 485C411.5 479 365.5 433.5 313.5 420Z" fill="#47B8B1"/>
<path d="M307 517.5C254.5 564.5 292.5 568 291 574.5C300 578.5 313.9 592.4 297.5 616C277 645.5 275 589 229 631C183 673 232.5 660.5 270.5 725.5C308.5 790.5 364 735.5 447.5 714.5C531 693.5 495 645 497.5 604C500 563 489.5 568 483 487C476.5 406 447.5 462 397.5 466C347.5 470 359.5 470.5 307 517.5Z" fill="#4295B0"/>
<path d="M112.5 305.5C85.5001 266 77.5001 302.5 42.0001 296.5C35.8335 301 22.6001 316.2 19.0001 341C14.5001 372 17.0001 361 33.0001 401.5C49.0001 442 70.5001 405.5 118 401.5C165.5 397.5 139.5 345 112.5 305.5Z" fill="#56B454"/>
<path d="M150.717 599.007C115.58 598.399 95.1842 640.54 89.3785 661.687C85.8446 662.7 78.0195 664.118 74.9904 661.687C71.2041 658.648 65.9031 641.933 49.2432 652.57C32.5833 663.207 50.3791 661.687 89.3785 692.458C128.378 723.228 118.912 728.167 160.941 787.428C202.969 846.69 211.678 795.786 255.978 770.334C300.278 744.881 254.085 725.887 248.405 688.279C242.726 650.671 259.764 649.151 243.483 628.637C227.202 608.124 194.639 599.766 150.717 599.007Z" fill="#56B454"/>
<path d="M512 560.5C490 591.5 467.5 617.5 450.5 637.5C446 637.5 432.7 642.2 415.5 661C394 684.5 405.5 705.5 408 734C410.5 762.5 450.5 773 512 759C573.5 745 556 691.5 548.5 661C541 630.5 543.5 601.5 548.5 531C553.5 460.5 534 529.5 512 560.5Z" fill="#47B8B1"/>
<path d="M632.5 511C593 509.5 596.5 557 576 593C565.667 599.333 538 617.4 510 639C475 666 484 669 472 707C460 745 518 762.5 613.5 775.5C709 788.5 655.5 759.5 671.5 742C687.5 724.5 702.5 672 693.5 633.5C684.5 595 692 577.5 693.5 547.5C695 517.5 672 512.5 632.5 511Z" fill="#56B454"/>
<path d="M778.5 579.5C764.5 578.3 762.667 618 763.5 638C764.833 641.667 772.1 654 790.5 674C813.5 699 818 667.5 844.5 649C871 630.5 858 614.5 835 593.5C812 572.5 796 581 778.5 579.5Z" fill="#4295B0"/>
<path d="M733.5 721.5C700.7 674.7 663.5 694 649 709.5C627.333 715.667 573.1 729.5 529.5 735.5C475 743 501.5 754 452 790.5C402.5 827 444.5 807 452 884C459.5 961 523.5 900 584 922.5C644.5 945 666 912 725.5 900C785 888 775.5 866 783.5 814.5C791.5 763 774.5 780 733.5 721.5Z" fill="#194444"/>
<path d="M921.531 462.59C900.908 488.373 928.203 492.316 937.301 527.502C935.684 535.085 942.881 549.766 984.612 547.825C1036.78 545.398 1017.37 519.312 1038.59 504.752C1059.82 490.193 1060.13 441.357 1033.14 388.881C1006.14 336.405 1011.91 391.308 969.145 418.607C926.383 445.907 942.154 436.807 921.531 462.59Z" fill="#115271"/>
<path d="M1175.5 678C1126.5 664.5 1155.5 701.5 1143 759C1133.67 767.333 1110 782.6 1090 777C1065 770 1069 771.5 1057 812C1045 852.5 1082 830 1105 852.5C1128 875 1151 888 1209.5 893.5C1268 899 1248.5 849.5 1250 817.5C1251.5 785.5 1240 785 1239 751.5C1238 718 1224.5 691.5 1175.5 678Z" fill="#47B8B1"/>
<path d="M1090.5 291C1053 299 1054 328.5 1041.5 354C1038 357.667 1028.3 374.2 1017.5 411C1004 457 1023 436.5 1096 482.5C1169 528.5 1105.5 447 1101.5 425.5C1097.5 404 1113.5 373 1136 304.5C1158.5 236 1128 283 1090.5 291Z" fill="#56B454"/>
<path d="M1170 254.5C1149.6 240.9 1115.83 304.5 1101.5 338C1103.33 341.667 1108 351.7 1112 362.5C1117 376 1119 403 1186 417.5C1253 432 1197 377.5 1198.5 320.5C1200 263.5 1195.5 271.5 1170 254.5Z" fill="#4295B0"/>
<path d="M1205.5 257C1157 257 1175.5 294.5 1175.5 298.5C1179.67 312.667 1197.3 345.2 1234.5 362C1281 383 1256.5 379.5 1257.5 423C1258.5 466.5 1244.5 447 1228 461C1211.5 475 1212 479.5 1199.5 506.5C1187 533.5 1212 535.5 1244.5 535.5C1277 535.5 1260.5 513.5 1294 461C1327.5 408.5 1315 407 1312 374.5C1309 342 1297 313.5 1277 269C1257 224.5 1254 257 1205.5 257Z" fill="#115271"/>
<path d="M1147 545C1116 513 1105.5 504.5 1048.5 505.5L1009.5 512.5C970.5 519.5 993 517.5 1016 562.5C1039 607.5 1023 596 1048.5 682C1074 768 1097.5 703 1147 720C1196.5 737 1182 714.5 1223 697.5C1264 680.5 1251 658 1223 606.5C1195 555 1178 577 1147 545Z" fill="#4295B0"/>
<path d="M1246 570C1214 554.5 1199.5 573 1177 591C1177 596.167 1179.7 609.5 1190.5 621.5C1204 636.5 1201.5 651.5 1236 693C1270.5 734.5 1270 718.5 1309 700C1348 681.5 1321 670 1309 628C1297 586 1278 585.5 1246 570Z" fill="#194444"/>
<path d="M1005 649C968.5 617 966.5 649 935.5 662C935.5 667.333 931.6 682.7 916 701.5C896.5 725 923 733.5 955 755C987 776.5 989.5 773 1045.5 780C1101.5 787 1086 755.5 1073 678C1060 600.5 1041.5 681 1005 649Z" fill="#56B454"/>
<path d="M801.5 703C765.1 712.2 757.333 754.5 758 774.5C763.333 781.167 774.9 800.7 778.5 825.5C783 856.5 801.5 874.5 857 846C912.5 817.5 910.5 831 948.5 807C986.5 783 954 774.5 942 712.5C930 650.5 909.5 703 867.5 696C825.5 689 847 691.5 801.5 703Z" fill="#4295B0"/>
<path d="M888 655C855.5 635.5 868.5 641.5 837.5 631V717.5C837.5 770.5 888 743.5 935 721.5C982 699.5 920.5 674.5 888 655Z" fill="#115271"/>
<path d="M323.5 804C279.5 802.5 292.5 824 282.5 851C282.5 857.333 285.5 873.3 297.5 886.5C312.5 903 339.5 890 404 878C468.5 866 411.5 856.5 392.5 823C373.5 789.5 367.5 805.5 323.5 804Z" fill="#115271"/>
<path d="M43.5246 767.548C-35.9963 727.353 -87.8942 760.455 -125.562 767.548C-137.839 782.523 -161.891 825.24 -159.882 876.311C-157.37 940.151 -125.562 942.515 -73.6641 1025.27C-21.7663 1108.03 -19.2551 1012.27 74.4959 974.435C168.247 936.604 123.046 807.743 43.5246 767.548Z" fill="#47B8B1"/>
<path d="M47.9999 395C-20.5001 399.5 2.99995 417.5 -10.0001 427.5C-11.8334 432 -16.6001 446.3 -21.0001 467.5C-26.5001 494 -6.00005 485.5 34.4999 547.5C74.9999 609.5 74.9999 592 130.5 613.5C186 635 200.5 620.5 246.5 588C292.5 555.5 234.5 520.5 200.5 497.5C166.5 474.5 165 449 150 427.5C135 406 116.5 390.5 47.9999 395Z" fill="#115271"/>
<path d="M36 73.5C-7.00002 61.5 -10.5 63.5 -17 63.5C-19.1667 63.5 -25.4 66.5 -33 78.5C-42.5 93.5 -37.5 117.5 -17 160C3.49998 202.5 16.5 175 53.5 194.5C90.5 214 80 191 106 131.5C132 72 79 85.5 36 73.5Z" fill="#194444"/>
<path d="M1035 52C985 32.8 1007.17 -2.99998 1024.5 -18.5C1037.33 -20.3333 1070.6 -22.9 1101 -18.5C1139 -13 1122.5 14 1141.5 30.5C1160.5 47 1189 46.5 1223 52C1257 57.5 1275.5 65.5 1294 108.5C1312.5 151.5 1263 129 1223 139.5C1183 150 1187.5 124.5 1145.5 84C1103.5 43.5 1097.5 76 1035 52Z" fill="#194444"/>
<path d="M862.5 18C847.7 -2.80004 856.333 -8.66671 862.5 -9.00004C870.167 -16.6667 891.7 -35.2 916.5 -48C947.5 -64 968.5 -45.5 1008 -9.00004C1047.5 27.5 1005 18 986 48C967 78 945.5 61.5 899 65.5C852.5 69.5 881 44 862.5 18Z" fill="#4295B0"/>
<path d="M503 57.5C491 33.9 508 1.66663 518 -11.5C554 -22.3334 639.5 -44.1 693.5 -44.5C761 -45 765 -27 780 27C795 81 770.5 76 731.5 105.5C692.5 135 715 96 650 84C585 72 623.5 104.5 575.5 112.5C527.5 120.5 518 87 503 57.5Z" fill="#115271"/>
<path d="M264 -17C199.6 -50.6 133.5 -31 108.5 -17C90.5 3.99999 51.7999 58.8 40.9999 110C27.4999 174 85.4999 119 118 170.5C150.5 222 114 223 91 285C68 347 143.5 331 236.5 358C329.5 385 345 346.5 363.5 285C382 223.5 363.5 239.5 319.5 194.5C275.5 149.5 311 152 341 86.5C371 21 344.5 25 264 -17Z" fill="#4295B0"/>
<path d="M200 18C137.5 -21 187 7.49999 192 -44.5C218.667 -49.6667 285.5 -59.2 339.5 -56C407 -52 373 -17.5 373.5 37C374 91.5 360 61.5 290.5 61.5C221 61.5 262.5 57 200 18Z" fill="#56B454"/>
</g>
</g>
<defs>
<filter id="filter1_f_181_11417" x="-280" y="-176.642" width="1729.32" height="1354.64" filterUnits="userSpaceOnUse" color-interpolation-filters="sRGB">
<feFlood flood-opacity="0" result="BackgroundImageFix"/>
<feBlend mode="normal" in="SourceGraphic" in2="BackgroundImageFix" result="shape"/>
<feGaussianBlur stdDeviation="60" result="effect1_foregroundBlur_181_11417"/>
</filter>
<clipPath id="clip0_181_11417">
<rect width="1300" height="840" fill="white" transform="translate(4)"/>
</clipPath>
</defs>
</svg>