<?xml version="1.0" encoding="UTF-8"?>
<svg id="Layer_1" data-name="Layer 1" xmlns="http://www.w3.org/2000/svg" version="1.1" viewBox="0 0 60 60">
  <defs>
    <style>
      .cls-1 {
        fill: #92FFFF;
        stroke-width: 0px;
      }
    </style>
  </defs>
  <path class="cls-1" d="M20.153,32.584l-.758-.762c-.829-.835-2.178-.84-3.013-.011-.004.004-.008.008-.011.011l-4.543,4.562c-.838.844-.838,2.207,0,3.051l.757.76h0c.828.835,2.177.84,3.012.012.004-.004.008-.008.012-.012l4.544-4.562c.837-.844.838-2.205.001-3.049Z"/>
  <path class="cls-1" d="M23.187,50.844c.844.809,2.175.809,3.019,0v-.005l4.544-4.557.006-.005c.835-.843.835-2.202,0-3.045l-.757-.762c-.845-.811-2.18-.811-3.024,0l-4.543,4.562c-.839.843-.839,2.206,0,3.049l.754.763Z"/>
  <path class="cls-1" d="M28.49,56.165c.829.834,2.177.839,3.012.01.003-.003.006-.006.01-.01l4.541-4.561c.838-.843.838-2.204,0-3.047l-.75-.767c-.403-.4-.948-.625-1.515-.624-.563,0-1.103.223-1.5.622h0l-4.543,4.561h0c-.835.843-.835,2.202,0,3.045l.747.772Z"/>
  <path class="cls-1" d="M19.398,46.15c.569.001,1.114-.226,1.513-.63l4.543-4.561c.838-.844.838-2.207,0-3.051l-.757-.762c-.832-.835-2.184-.838-3.019-.006-.002.002-.004.004-.006.006l-4.543,4.563c-.838.844-.838,2.207,0,3.051l.758.76h0c.399.404.943.631,1.511.63Z"/>
  <path class="cls-1" d="M36.061,24.226l12.117,12.168c.844.812,2.179.812,3.023,0l.758-.761c.838-.843.838-2.206,0-3.049l-16.661-16.729c-.421-.407-1.088-.407-1.509,0l-8.329,8.359c-2.499,2.511-6.56,2.52-9.071.021-.007-.007-.014-.014-.021-.021-1.251-1.26-1.251-3.294,0-4.555l12.084-12.131C21.689,1.5,11.393,1.815,5.013,8.245c-6.684,6.738-6.684,17.606,0,24.344l4.204,4.223c.185-.732.562-1.402,1.091-1.941l4.543-4.562c1.665-1.674,4.373-1.682,6.047-.016.005.005.011.011.016.016l.757.762c.88.89,1.326,2.122,1.22,3.369,1.227-.098,2.437.336,3.322,1.192l.758.762c.87.881,1.316,2.095,1.222,3.33.098-.006.192-.028.29-.028,1.139-.002,2.231.452,3.032,1.26l.757.762c.881.891,1.327,2.123,1.22,3.371,1.226-.097,2.435.336,3.322,1.189l.735.75c.006.005.015.008.02.013.829.835,2.178.84,3.013.011.004-.004.008-.008.011-.011l.758-.762c.836-.843.836-2.203,0-3.047h0l-12.111-12.169c-.418-.42-.416-1.099.003-1.516.42-.418,1.099-.416,1.516.003l12.117,12.169h0c.845.811,2.179.811,3.023,0l.757-.761c.838-.844.838-2.206,0-3.05l-12.116-12.168c-.418-.42-.416-1.099.003-1.516.42-.418,1.099-.416,1.516.003Z"/>
  <path class="cls-1" d="M54.57,33.01l.417-.419c6.684-6.738,6.684-17.605,0-24.343-6.649-6.688-17.462-6.72-24.15-.071-.024.024-.047.047-.071.071h0l-12.877,12.928c-.42.423-.42,1.105,0,1.528,1.691,1.625,4.363,1.625,6.054,0l8.329-8.359c1.271-1.219,3.277-1.219,4.548,0l16.657,16.727c.529.538.906,1.206,1.092,1.938Z"/>
</svg>