<?xml version="1.0" encoding="UTF-8"?>
<svg id="stopwatch" xmlns="http://www.w3.org/2000/svg" version="1.1" viewBox="0 0 24 24">
  <defs>
    <style>
      .cls-1 {
        fill: #92FFFF;
        stroke-width: 0px;
      }
    </style>
  </defs>
  <path class="cls-1" d="M9.476,2.524h5.047c.697,0,1.262-.565,1.262-1.262s-.565-1.262-1.262-1.262h-5.047c-.697,0-1.262.565-1.262,1.262s.565,1.262,1.262,1.262Z"/>
  <path class="cls-1" d="M19.949,7.684l1.148-1.136c.495-.495.495-1.297,0-1.792s-1.297-.495-1.792,0l-1.136,1.148c-3.637-2.814-8.716-2.814-12.353,0l-1.148-1.161c-.498-.495-1.303-.492-1.798.006-.495.498-.492,1.303.006,1.798l1.161,1.148c-1.384,1.763-2.135,3.941-2.132,6.183-.014,5.575,4.494,10.106,10.069,10.12,5.575.014,10.106-4.494,10.12-10.069.006-2.264-.75-4.464-2.145-6.247ZM13.262,15.301c-.779.697-1.976.63-2.673-.149-.697-.779-.63-1.976.149-2.673v-2.385c0-.697.565-1.262,1.262-1.262s1.262.565,1.262,1.262v2.385c.052.047.102.097.149.149.697.779.63,1.976-.149,2.672Z"/>
</svg>