<?xml version="1.0" encoding="UTF-8"?>
<svg id="grin" xmlns="http://www.w3.org/2000/svg" version="1.1" viewBox="0 0 24 24">
  <defs>
    <style>
      .cls-1 {
        fill: #000;
        stroke-width: 0px;
      }
    </style>
  </defs>
  <path class="cls-1" d="M12,0C5.373,0,0,5.373,0,12s5.373,12,12,12,12-5.373,12-12S18.627,0,12,0ZM8.4,8.4c.663,0,1.2.537,1.2,1.2s-.537,1.2-1.2,1.2-1.2-.537-1.2-1.2.537-1.2,1.2-1.2ZM12,19.2c-2.651,0-4.8-2.149-4.8-4.8,0-.663.537-1.2,1.2-1.2h7.2c.663,0,1.2.537,1.2,1.2,0,2.651-2.149,4.8-4.8,4.8ZM15.6,10.8c-.663,0-1.2-.537-1.2-1.2s.537-1.2,1.2-1.2,1.2.537,1.2,1.2-.537,1.2-1.2,1.2Z"/>
</svg>