<?xml version="1.0" encoding="UTF-8"?>
<svg id="bolt" xmlns="http://www.w3.org/2000/svg" version="1.1" viewBox="0 0 24 24">
  <defs>
    <style>
      .cls-1 {
        fill: #000;
        stroke-width: 0px;
      }
    </style>
  </defs>
  <path class="cls-1" d="M21.431,7.944c-.182-.419-.586-.697-1.042-.719h-5.486l1.521-5.678c.098-.36.023-.745-.204-1.042-.226-.294-.576-.466-.946-.467H6.888c-.557-.019-1.053.348-1.198.886l-3.21,11.979c-.098.36-.023.745.204,1.042.229.297.583.47.958.467h4.636l-2.168,8.074c-.174.638.202,1.297.84,1.471.438.119.906-.019,1.208-.357l13.057-14.375c.318-.348.402-.849.216-1.282Z"/>
</svg>