<svg width="36" height="22" viewBox="0 0 36 22" fill="none" xmlns="http://www.w3.org/2000/svg">
<g id="Frame" clip-path="url(#clip0_190_5353)">
<path id="Vector" opacity="0.07" d="M33.1579 0H2.84211C1.23158 0 0 1.19167 0 2.75V19.25C0 20.8083 1.32632 22 2.84211 22H33.1579C34.7684 22 36 20.8083 36 19.25V2.75C36 1.19167 34.6737 0 33.1579 0Z" fill="black"/>
<path id="Vector_2" d="M34.0001 0C35.1 0 36 0.900167 36 2.00017V19.9998C36 21.0998 35.1 22 34.0001 22H1.99895C0.9 22 0 21.0998 0 19.9998V2.00017C0 0.900167 0.9 0 1.99989 0H34.0001Z" fill="#5A31F4"/>
<path id="Vector_3" d="M8.85797 10.4207C7.89449 10.2162 7.46533 10.1365 7.46533 9.77442C7.46533 9.43342 7.75523 9.26292 8.33691 9.26292C8.84849 9.26292 9.22176 9.48108 9.49744 9.90825C9.50716 9.92411 9.52276 9.93578 9.54107 9.94089C9.55938 9.946 9.57901 9.94416 9.59597 9.93575L10.6817 9.40042C10.6909 9.39564 10.699 9.3891 10.7056 9.3812C10.7122 9.3733 10.717 9.36419 10.7199 9.35443C10.7227 9.34466 10.7234 9.33445 10.7221 9.32439C10.7207 9.31434 10.7173 9.30465 10.712 9.29592C10.262 8.53417 9.43018 8.11708 8.33407 8.11708C6.89407 8.11708 5.99976 8.80917 5.99976 9.91008C5.99976 11.0788 7.08923 11.374 8.05555 11.5784C9.02186 11.7819 9.45197 11.8626 9.45197 12.2247C9.45197 12.5877 9.13744 12.7582 8.51123 12.7582C7.93144 12.7582 7.50228 12.4997 7.24176 11.9973C7.23264 11.9801 7.21687 11.9671 7.19789 11.9611C7.17891 11.9551 7.15824 11.9566 7.14039 11.9653L6.05755 12.4878C6.03917 12.497 6.02528 12.5128 6.01889 12.5318C6.01251 12.5509 6.01414 12.5716 6.02344 12.5895C6.45354 13.4328 7.3346 13.9067 8.51218 13.9067C10.0119 13.9067 10.9175 13.2266 10.9175 12.0918C10.9175 10.9569 9.82333 10.6269 8.85891 10.4234L8.85797 10.4207ZM14.6748 8.11708C14.059 8.11708 13.5152 8.32975 13.1249 8.70925C13.1196 8.71473 13.1126 8.71848 13.105 8.72C13.0973 8.72151 13.0894 8.72071 13.0823 8.7177C13.0751 8.71469 13.0691 8.70963 13.065 8.7032C13.061 8.69676 13.0591 8.68927 13.0595 8.68175V6.26175C13.0597 6.25204 13.0578 6.24241 13.0541 6.2334C13.0503 6.2244 13.0447 6.21621 13.0377 6.2093C13.0306 6.20239 13.0222 6.19691 13.013 6.19317C13.0037 6.18943 12.9938 6.1875 12.9838 6.1875H11.6243C11.6142 6.1875 11.6042 6.18945 11.5948 6.19325C11.5855 6.19705 11.5771 6.20262 11.57 6.20962C11.5629 6.21663 11.5574 6.22493 11.5537 6.23404C11.55 6.24315 11.5482 6.25288 11.5485 6.26267V13.7738C11.5482 13.7836 11.55 13.7934 11.5537 13.8025C11.5574 13.8116 11.5629 13.8199 11.57 13.8269C11.5771 13.8339 11.5855 13.8394 11.5948 13.8432C11.6042 13.847 11.6142 13.849 11.6243 13.849H12.9819C12.9921 13.8491 13.0022 13.8473 13.0116 13.8435C13.021 13.8398 13.0296 13.8342 13.0368 13.8272C13.0439 13.8202 13.0495 13.8118 13.0533 13.8027C13.0571 13.7935 13.0589 13.7837 13.0586 13.7738V10.4793C13.0586 9.84225 13.5588 9.35458 14.2324 9.35458C14.905 9.35458 15.3939 9.83217 15.3939 10.4793V13.7738C15.3936 13.7837 15.3954 13.7935 15.3992 13.8027C15.4029 13.8118 15.4085 13.8202 15.4157 13.8272C15.4229 13.8342 15.4314 13.8398 15.4409 13.8435C15.4503 13.8473 15.4604 13.8491 15.4706 13.849H16.8282C16.8384 13.8491 16.8485 13.8473 16.8579 13.8435C16.8673 13.8398 16.8759 13.8342 16.8831 13.8272C16.8902 13.8202 16.8959 13.8118 16.8996 13.8027C16.9034 13.7935 16.9052 13.7837 16.9049 13.7738V10.4793C16.9049 9.09517 15.9765 8.11708 14.6748 8.11708ZM19.6608 7.90167C18.9238 7.90167 18.2331 8.12167 17.7376 8.44067C17.7211 8.45105 17.7092 8.46716 17.7044 8.48572C17.6997 8.50429 17.7024 8.52391 17.7121 8.54058L18.3108 9.53792C18.3157 9.5464 18.3223 9.55385 18.3303 9.55984C18.3382 9.56582 18.3473 9.57022 18.357 9.57278C18.3667 9.57534 18.3768 9.57601 18.3868 9.57474C18.3967 9.57348 18.4063 9.57031 18.415 9.56542C18.7909 9.34344 19.2233 9.22726 19.6637 9.22992C20.8479 9.22992 21.7194 10.0467 21.7194 11.1256C21.7194 12.045 21.0222 12.7252 20.1383 12.7252C19.4183 12.7252 18.9181 12.3163 18.9181 11.7379C18.9181 11.407 19.0621 11.1357 19.4372 10.9441C19.4465 10.9395 19.4548 10.9331 19.4614 10.9253C19.468 10.9175 19.4729 10.9084 19.4758 10.8987C19.4786 10.889 19.4794 10.8788 19.478 10.8688C19.4765 10.8588 19.473 10.8491 19.4675 10.8405L18.9029 9.90733C18.8939 9.89215 18.8796 9.88057 18.8626 9.87469C18.8456 9.86881 18.827 9.869 18.8101 9.87525C18.0531 10.1493 17.5226 10.8084 17.5226 11.6939C17.5226 13.0322 18.614 14.0314 20.1373 14.0314C21.9155 14.0314 23.1945 12.8278 23.1945 11.1027C23.1945 9.25283 21.7071 7.90167 19.6608 7.90167ZM27.1659 8.10608C26.48 8.10608 25.8651 8.35358 25.418 8.78992C25.3933 8.81467 25.3526 8.79633 25.3526 8.76333V8.239C25.3528 8.22922 25.3511 8.21948 25.3474 8.21037C25.3437 8.20126 25.3381 8.19296 25.3311 8.18596C25.324 8.17895 25.3156 8.17339 25.3063 8.16959C25.2969 8.16579 25.2869 8.16383 25.2768 8.16383H23.9533C23.9432 8.16383 23.9332 8.16579 23.9239 8.16959C23.9146 8.17339 23.9061 8.17895 23.8991 8.18596C23.892 8.19296 23.8865 8.20126 23.8828 8.21037C23.8791 8.21948 23.8773 8.22922 23.8775 8.239V15.7392C23.8774 15.7489 23.8793 15.7585 23.883 15.7675C23.8868 15.7765 23.8924 15.7847 23.8994 15.7916C23.9065 15.7985 23.9149 15.804 23.9241 15.8077C23.9334 15.8115 23.9433 15.8134 23.9533 15.8134H25.3109C25.321 15.8135 25.3311 15.8117 25.3404 15.808C25.3498 15.8043 25.3583 15.7989 25.3655 15.7919C25.3726 15.785 25.3783 15.7768 25.3821 15.7677C25.3859 15.7587 25.3878 15.749 25.3877 15.7392V13.2798C25.3877 13.2468 25.4284 13.2302 25.453 13.2522C25.9171 13.6718 26.5308 13.9017 27.1659 13.8939C28.7593 13.8939 30.0013 12.6353 30.0013 11C30.0013 9.36467 28.7574 8.10608 27.1659 8.10608ZM26.9091 12.6243C26.0034 12.6243 25.3166 11.9203 25.3166 10.9899C25.3166 10.0595 26.0015 9.3555 26.9091 9.3555C27.8167 9.3555 28.5007 10.0476 28.5007 10.9899C28.5007 11.9313 27.8262 12.6243 26.9091 12.6243Z" fill="#D3F0FD"/>
</g>
<defs>
<clipPath id="clip0_190_5353">
<rect width="36" height="22" fill="white"/>
</clipPath>
</defs>
</svg>
