<svg width="38" height="24" viewBox="0 0 38 24" fill="none" xmlns="http://www.w3.org/2000/svg">
<g id="Frame">
<path id="Vector" d="M34.3873 0.800049L34.766 0.800728C34.8683 0.801408 34.9709 0.80254 35.074 0.805258C35.2536 0.810241 35.4633 0.81998 35.659 0.855086C35.8289 0.885662 35.9716 0.932092 36.1084 1.00185C36.3821 1.14104 36.6045 1.36369 36.7434 1.63761C36.8128 1.7735 36.859 1.91529 36.8895 2.08674C36.9244 2.28016 36.9342 2.49057 36.9389 2.67108C36.9419 2.773 36.9432 2.87492 36.9434 2.97911C36.9446 3.10526 36.9446 3.23119 36.9446 3.35757V20.6428C36.9446 20.7692 36.9446 20.8951 36.9437 21.0238C36.9432 21.1257 36.9418 21.2276 36.9391 21.3295C36.9341 21.5098 36.9244 21.7202 36.8891 21.9159C36.8634 22.0716 36.8141 22.2224 36.743 22.3632C36.6038 22.6373 36.3811 22.8599 36.107 22.999C35.9711 23.0683 35.8289 23.1147 35.6606 23.1451C35.4611 23.1806 35.2423 23.1904 35.0776 23.1949C34.9741 23.1972 34.8711 23.1988 34.7653 23.1992C34.6396 23.2001 34.5132 23.2001 34.3873 23.2001H3.60798C3.48341 23.2001 3.35884 23.2001 3.232 23.1992C3.13007 23.1988 3.02815 23.1974 2.92624 23.1951C2.75774 23.1906 2.53895 23.1806 2.34099 23.1453C2.18448 23.1192 2.03283 23.0696 1.89119 22.9981C1.75532 22.9291 1.63131 22.8389 1.52382 22.7308C1.41599 22.6232 1.32593 22.4991 1.25701 22.3632C1.18584 22.2216 1.13651 22.07 1.1107 21.9137C1.07537 21.7182 1.0654 21.5087 1.06087 21.3298C1.05831 21.2275 1.0568 21.1252 1.05634 21.0229L1.05566 20.7223V3.2783L1.05612 2.9782C1.05658 2.87574 1.05809 2.77329 1.06065 2.67086C1.06563 2.49148 1.07537 2.28197 1.11093 2.08493C1.13679 1.92884 1.18612 1.77757 1.25724 1.63625C1.32609 1.50081 1.41578 1.37714 1.5245 1.26866C1.63225 1.16074 1.75639 1.07054 1.89232 1.0014C2.03362 0.930411 2.18479 0.881088 2.34077 0.855086C2.53668 0.81998 2.74664 0.810241 2.92647 0.805258C3.02884 0.80254 3.13144 0.801408 3.23314 0.800728L3.61296 0.800049H34.3873Z" fill="#D3F0FD"/>
<g id="Group">
<g id="Group_2">
<path id="Vector_2" d="M10.1097 8.10147C10.4277 7.70398 10.6433 7.17014 10.5864 6.62476C10.1212 6.64786 9.55363 6.93165 9.22477 7.32959C8.92965 7.67023 8.66851 8.22627 8.73646 8.74878C9.25874 8.79408 9.78058 8.48786 10.1097 8.10147Z" fill="black"/>
<path id="Vector_3" d="M10.5806 8.85094C9.82187 8.80564 9.17727 9.28127 8.81512 9.28127C8.45273 9.28127 7.89806 8.87359 7.29809 8.88469C6.51738 8.89601 5.79306 9.33767 5.39671 10.0398C4.58179 11.444 5.18154 13.5277 5.97425 14.6715C6.35906 15.2377 6.82291 15.8606 7.43398 15.8382C8.01153 15.8155 8.23779 15.4644 8.93946 15.4644C9.6409 15.4644 9.84474 15.8382 10.456 15.8268C11.0898 15.8155 11.4861 15.2606 11.8709 14.6944C12.3126 14.0489 12.4931 13.426 12.5044 13.3921C12.4931 13.3807 11.2823 12.9162 11.2709 11.5233C11.2596 10.3569 12.2218 9.80197 12.267 9.76777C11.7237 8.96419 10.8748 8.87359 10.5804 8.85094" fill="black"/>
</g>
<g id="Group_3">
<path id="Vector_4" d="M18.1422 7.27246C19.7906 7.27246 20.9386 8.40876 20.9386 10.063C20.9386 11.7232 19.767 12.8654 18.101 12.8654H16.2759V15.7681H14.9573V7.27246H18.1422ZM16.2759 11.7585H17.7889C18.9372 11.7585 19.5904 11.1405 19.5904 10.0689C19.5904 8.99763 18.9369 8.38521 17.7947 8.38521H16.2759V11.7585Z" fill="black"/>
<path id="Vector_5" d="M21.2656 14.0075C21.2656 12.9183 22.0957 12.2944 23.6263 12.2002L25.2688 12.1V11.6289C25.2688 10.9404 24.8156 10.5635 24.0091 10.5635C23.3437 10.5635 22.8608 10.9049 22.7611 11.4287H21.5716C21.6072 10.328 22.6431 9.52734 24.0444 9.52734C25.5515 9.52734 26.5347 10.3162 26.5347 11.5408V15.7678H25.3162V14.7493H25.2867C24.9393 15.4145 24.1738 15.8324 23.3437 15.8324C22.1193 15.8324 21.2656 15.1026 21.2656 14.0075ZM25.2688 13.4601V12.9831L23.803 13.0773C22.9786 13.1303 22.5491 13.4363 22.5491 13.972C22.5491 14.4902 22.9965 14.8258 23.697 14.8258C24.5916 14.8258 25.2688 14.2546 25.2688 13.4601Z" fill="black"/>
<path id="Vector_6" d="M27.6552 18.0403V17.022C27.7376 17.0336 27.9376 17.0453 28.0436 17.0453C28.6263 17.0453 28.9561 16.7985 29.1563 16.1622L29.2741 15.7856L27.0427 9.604H28.4202L29.9746 14.6198H30.0041L31.5583 9.604H32.9007L30.5868 16.0975C30.0569 17.5871 29.4505 18.0759 28.1672 18.0759C28.0671 18.0759 27.7433 18.0641 27.6552 18.0403Z" fill="black"/>
</g>
</g>
</g>
</svg>
