<svg width="38" height="24" viewBox="0 0 38 24" fill="none" xmlns="http://www.w3.org/2000/svg">
<g id="Frame">
<path id="Vector" d="M35 1C36.1 1 37 1.9 37 3V21C37 22.1 36.1 23 35 23H3C1.9 23 1 22.1 1 21V3C1 1.9 1.9 1 3 1H35Z" fill="#006FCF"/>
<path id="Vector_2" d="M22.012 19.9359V11.5149L37 11.5279V13.8539L35.268 15.7059L37 17.5729V19.9479H34.234L32.764 18.3259L31.304 19.9539L22.012 19.9339V19.9359Z" fill="#D3F0FD"/>
<path id="Vector_3" d="M23.0129 19.0119V12.4419H28.5849V13.9549H24.8169V14.9829H28.4949V16.4709H24.8169V17.4809H28.5849V19.0119H23.0129Z" fill="#006FCF"/>
<path id="Vector_4" d="M28.5569 19.0119L31.6399 15.7229L28.5569 12.4409H30.9429L32.8269 14.5239L34.7169 12.4419H36.9999V12.4929L33.9829 15.7229L36.9999 18.9199V19.0129H34.6929L32.7759 16.9099L30.8779 19.0139H28.5569V19.0119Z" fill="#006FCF"/>
<path id="Vector_5" d="M22.71 4.04004H26.324L27.593 6.92104V4.04004H32.053L32.823 6.19904L33.594 4.04004H37V12.461H19L22.71 4.04004Z" fill="#D3F0FD"/>
<path id="Vector_6" d="M23.395 4.95508L20.479 11.5211H22.479L23.029 10.2061H26.009L26.559 11.5211H28.609L25.705 4.95508H23.395ZM23.645 8.73208L24.52 6.64208L25.393 8.73208H23.645Z" fill="#006FCF"/>
<path id="Vector_7" d="M28.5811 11.5199V4.95288L31.3921 4.96288L32.8401 8.99988L34.2961 4.95388H37.0001V11.5189L35.2601 11.5349V7.02488L33.6161 11.5189H32.0261L30.3501 7.00988V11.5199H28.5821H28.5811Z" fill="#006FCF"/>
</g>
</svg>
