<svg width="38" height="24" viewBox="0 0 38 24" fill="none" xmlns="http://www.w3.org/2000/svg">
<g id="Frame">
<path id="Vector" d="M35 1C36.1 1 37 1.9 37 3V21C37 22.1 36.1 23 35 23H3C1.9 23 1 22.1 1 21V3C1 1.9 1.9 1 3 1H35Z" fill="#D3F0FD"/>
<path id="Vector_2" d="M23.9 8.3C24.1 7.3 23.9 6.6 23.3 6C22.7 5.3 21.6 5 20.2 5H16.1C15.8 5 15.6 5.2 15.5 5.5L14 15.6C14 15.8 14.1 16 14.3 16H17L17.4 12.6L19.2 10.4L23.9 8.3Z" fill="#003087"/>
<path id="Vector_3" d="M23.9001 8.30005L23.7001 8.50005C23.2001 11.3 21.5001 12.3 19.1001 12.3H18.0001C17.7001 12.3 17.5001 12.5 17.4001 12.8L16.8001 16.7L16.6001 17.7C16.6001 17.9 16.7001 18.1 16.9001 18.1H19.0001C19.3001 18.1 19.5001 17.9 19.5001 17.7V17.6L19.9001 15.2V15.1C19.9001 14.9 20.2001 14.7 20.4001 14.7H20.7001C22.8001 14.7 24.4001 13.9 24.8001 11.5C25.0001 10.5 24.9001 9.70005 24.4001 9.10005C24.3001 8.60005 24.1001 8.40005 23.9001 8.30005Z" fill="#3086C8"/>
<path id="Vector_4" d="M23.2999 8.10005C23.1999 8.00005 23.0999 8.00005 22.9999 8.00005C22.8999 8.00005 22.7999 8.00005 22.6999 7.90005C22.3999 7.80005 21.9999 7.80005 21.5999 7.80005H18.5999C18.4999 7.80005 18.3999 7.80005 18.3999 7.90005C18.1999 8.00005 18.0999 8.10005 18.0999 8.30005L17.3999 12.7V12.8C17.3999 12.5 17.6999 12.3 17.9999 12.3H19.2999C21.7999 12.3 23.3999 11.3 23.8999 8.50005V8.30005C23.7999 8.20005 23.5999 8.10005 23.3999 8.10005H23.2999Z" fill="#012169"/>
</g>
</svg>
