<?xml version="1.0" encoding="UTF-8"?>
<svg id="Layer_1" data-name="Layer 1" xmlns="http://www.w3.org/2000/svg" version="1.1" viewBox="0 0 24 24">
  <defs>
    <style>
      .cls-1 {
        fill: #fff;
        fill-rule: evenodd;
        stroke-width: 0px;
      }
    </style>
  </defs>
  <path class="cls-1" d="M3.996,1.857c-.591-.591-1.548-.591-2.139,0-.591.591-.591,1.548,0,2.139l8.004,8.004L1.857,20.004c-.591.591-.591,1.548,0,2.139.591.591,1.548.591,2.139,0l8.004-8.004,8.004,8.004c.591.591,1.548.591,2.139,0,.591-.591.591-1.548,0-2.139l-8.004-8.004L22.143,3.996c.591-.591.591-1.548,0-2.139-.591-.591-1.548-.591-2.139,0l-8.004,8.004L3.996,1.857Z"/>
</svg>