<?xml version="1.0" encoding="UTF-8"?>
<svg id="Layer_1" data-name="Layer 1" xmlns="http://www.w3.org/2000/svg" version="1.1" viewBox="0 0 984.414 240.427">
  <defs>
    <style>
      .cls-1 {
        fill: #fff;
        stroke-width: 0px;
      }
    </style>
  </defs>
  <path class="cls-1" d="M798.249,10.021c49.824-.003,99.648-.033,149.471.014,16.718.016,30.604,10.467,35.49,26.389,1.045,3.404,1.195,6.867,1.194,10.377-.006,51.823.026,103.646-.005,155.47-.013,21.643-15.568,37.486-37.317,38.044-6.162.158-12.33.039-18.496.039-92.149.001-184.298.01-276.447-.006-18.709-.003-33.535-10.123-38.489-26.129-1.143-3.692-1.644-7.452-1.641-11.323.029-51.657-.01-103.314.045-154.97.023-22.292,15.781-37.877,38.223-37.891,49.324-.031,98.648-.01,147.972-.013ZM671.202,110.96c0,15.333-.123,30.668.035,45.999.157,15.331-2.678,13.145,14.109,13.377,3.728.052,4.983-1.628,4.922-5.158-.123-7.164-.036-14.332-.026-21.499.013-9.083.269-9.268,9.156-9.381,8.824-.113,17.747.955,26.453-.66,22.03-4.088,34.364-22.512,32.16-47.353-1.685-18.992-19.183-34.566-39.443-34.842-13.831-.188-27.669.114-41.497-.143-4.732-.088-5.983,1.732-5.939,6.16.175,17.831.073,35.666.071,53.499ZM839.024,141.717c-.015,0-.029,0-.044,0,0-7.831.201-15.667-.043-23.49-.472-15.173-7.895-24.632-21.329-27.541-9.953-2.155-19.897-1.85-29.685.8-8.944,2.422-16.092,7.231-19.277,16.489-1.724,5.011-1.06,5.973,4.069,6.063,2.998.053,5.998.003,8.997-.005,1.71-.004,3.457-.112,4.326-1.87,3.849-7.784,11.186-8.398,18.384-8.507,10.8-.163,16.673,5.351,15.984,14.061-.19,2.406-1.063,3.677-3.577,3.791-5.653.256-11.3.648-16.952.918-7.207.343-14.262,1.504-20.936,4.293-10.497,4.386-15.542,13.095-14.574,24.764.815,9.826,7.22,17.443,17.77,19.625,12.008,2.484,23.917,2.619,34.189-5.856,1.806-1.49,3.638-1.768,3.859,1.055.3,3.823,2.62,4.1,5.512,4.024,2.164-.057,4.332,0,6.497-.011,6.686-.035,6.802-.13,6.823-6.61.024-7.331.005-14.662.005-21.992ZM862.263,91.469c-.666,0-1.332,0-1.998,0-8.537.011-8.564.063-5.431,7.823,9.411,23.309,18.657,46.687,28.326,69.888,2.308,5.538,1.354,10.007-1.817,14.434-3.956,5.524-9.401,8.243-16.25,8.199-9.786-.063-9.786-.023-9.705,9.7.003.333.04.671-.002.998-.518,4.02,1.466,5.765,5.294,6.106,18.17,1.62,32.709-5.141,40.131-24.207,8.755-22.494,17.462-45.007,26.18-67.516,2.646-6.83,5.214-13.691,7.909-20.502,1.398-3.534.263-5.008-3.449-4.889-2.661.085-5.366.291-7.984-.057-4.979-.661-7.059,1.727-8.493,6.207-4.974,15.538-10.293,30.966-15.483,46.435-.371,1.105-.733,2.214-1.148,3.302-.479,1.254-.975,2.602-2.557,2.75-1.596.149-2.349-1.032-2.932-2.274-.636-1.356-1.253-2.724-1.793-4.12-5.705-14.749-11.405-29.5-17.08-44.26q-3.079-8.007-11.718-8.019Z"/>
  <path class="cls-1" d="M474.932,180.809c-1.129,1.597-.561,3.477-.567,5.222-.054,15.998-.164,31.997.042,47.993.062,4.813-1.713,6.53-6.433,6.397-8.326-.234-16.664-.178-24.994-.029-4.183.075-5.974-1.425-5.967-5.822.086-58.492.076-116.984.013-175.476-.004-3.899,1.196-5.919,5.41-5.847,8.163.139,16.331.105,24.496.011,3.78-.043,5.509,1.528,5.383,5.379-.141,4.308-.032,8.624-.032,12.731,1.663.9,2.22-.185,2.837-.848,20.75-22.267,50.327-21.242,73.737-5.538,29.438,19.748,39.799,60.182,24.062,92.96-9.609,20.014-24.994,33.285-46.939,37.553-18.252,3.55-35.174.268-48.914-13.513-.565-.567-1.033-1.319-2.133-1.173ZM543.095,124.974c-.006-20.403-15.039-35.604-35.175-35.57-19.443.033-35.469,16.209-35.495,35.828-.026,19.556,16.059,35.848,35.433,35.891,20.158.045,35.242-15.431,35.236-36.149Z"/>
  <path class="cls-1" d="M166.221,73.086c3.964-3.906,7.629-7.932,12.409-10.643,27.959-15.853,61.25-1.819,70.314,29.695,2.129,7.403,3.215,15.008,3.257,22.677.135,24.819.066,49.64.041,74.46-.007,6.738-.427,7.134-7.017,7.158-7.829.028-15.659.035-23.488-.002-6.072-.029-6.604-.517-6.615-6.526-.044-23.821-.037-47.641-.053-71.462-.002-3-.182-5.967-.805-8.933-2.901-13.81-10.178-19.198-24.649-18.107-11.682.881-20.89,10.049-21.288,21.938-.39,11.648-.17,23.317-.187,34.977-.021,13.993-.099,27.986.038,41.977.043,4.397-1.431,6.363-6.091,6.218-8.154-.254-16.323-.046-24.485-.072-6.258-.02-6.556-.293-6.562-6.438-.021-22.821-.009-45.643-.009-68.464,0-34.815-.005-69.63.005-104.445.002-6.947.114-7.05,6.904-7.069,7.163-.02,14.334.2,21.486-.077,4.51-.175,6.161,1.348,6.106,5.977-.204,17.155-.097,34.314-.05,51.472.005,1.759-.507,3.622.739,5.688Z"/>
  <path class="cls-1" d="M383.04,126.372c.384-12.386-3.043-23.682-9.873-33.968-8.313-12.52-20.634-17.707-35.02-17.68-9.279.017-18.55,1.627-27.495,4.6-6.596,2.193-12.443,5.604-17.705,10.05-3.34,2.823-5.896,2.507-8.025-1.388-3.355-6.138-6.664-12.307-10.224-18.325-2.203-3.724-1.018-6.001,2.155-8.377,14.952-11.199,31.568-17.357,50.325-18.522,20.98-1.304,40.026,3.289,56.668,16.346,17.791,13.959,27.6,32.72,31.104,54.711,3.661,22.981-.821,44.385-14.353,63.632-24.447,34.772-77.153,40.222-107.849,10.871-21.434-20.494-26.484-59.04-4.962-81.957,3.566-3.797,7.605-6.96,11.921-9.816,3.233-2.14,5.557-1.324,7.242,2.102,2.793,5.681,5.496,11.42,8.593,16.934,2.367,4.215,1.804,7.006-1.992,10.268-11.471,9.858-12.485,26.227-2.301,37.415,6.611,7.263,15.56,10.167,25.124,10.754,26.931,1.654,45.806-15.695,46.662-42.652.053-1.664.007-3.332.007-4.998Z"/>
  <path class="cls-1" d="M98.007,90.33c-4.666,0-9.333-.033-13.999.013-2.691.026-4.524-.919-4.91-3.813-.066-.493-.166-.998-.355-1.454-2.813-6.776-8.81-8.328-15.132-8.539-7.709-.257-16.102-1.559-21.131,6.606-2.424,3.936-.677,9.022,3.724,12.232,3.41,2.488,7.344,3.835,11.397,4.944,10.924,2.988,22.191,4.742,32.856,8.623,18.682,6.797,30.351,19.579,30.431,40.092.074,19.044-9.775,32.863-26.981,40.326-25.292,10.97-50.339,10.393-73.803-5.404-10.828-7.29-17.465-17.697-19.716-30.7-1.06-6.121-.203-7.122,5.819-7.255,8.323-.183,16.646-.37,24.965-.686,3.788-.144,6.352.893,7.31,5.011.735,3.16,2.694,5.8,5.61,7.375,10.438,5.638,21.262,6.264,32.246,1.846,4.06-1.633,7.298-4.605,7.309-9.282.012-4.836-3.183-7.909-7.42-9.762-7.359-3.219-15.227-4.851-22.907-7.045-10.759-3.074-21.227-6.66-31.049-12.245C.412,108.783-1.365,78.466,14.685,61.015c11.448-12.447,26.08-17.952,42.373-18.482,16.64-.542,32.582,2.896,45.728,14.182,8.762,7.523,13.132,17.428,14.449,28.776.365,3.147-1.081,4.734-4.229,4.744-4.999.017-9.999.004-14.998.004,0,.03,0,.06,0,.09Z"/>
  <path class="cls-1" d="M706.644,117.48c-3.833,0-7.667-.058-11.498.018-3.123.062-4.741-1.48-4.754-4.478-.057-13.496-.055-26.992,0-40.487.012-3.073,1.806-4.423,4.843-4.398,7.331.058,14.687-.325,21.99.142,12.464.796,22.176,12.193,21.785,24.956-.429,14.002-10.161,24.115-23.366,24.26-2.999.033-5.999.005-8.999.005v-.017Z"/>
  <path class="cls-1" d="M798.237,158.476c-2.562.135-5.532-.224-8.366-1.33-3.62-1.412-6.333-3.674-6.845-7.825-.543-4.404,1.073-7.824,4.747-10.278,4.193-2.802,9.045-3.329,13.853-3.68,4.98-.363,10-.152,14.987-.457,2.924-.179,3.699,1.015,3.82,3.731.535,12.031-7.976,19.876-22.196,19.838Z"/>
</svg>