<svg width="63" height="26" viewBox="0 0 63 26" fill="none" xmlns="http://www.w3.org/2000/svg">
<path id="Vector" d="M7.88323 11.4942C5.39442 10.9633 4.28583 10.7562 4.28583 9.81577C4.28583 8.93014 5.03468 8.48733 6.53726 8.48733C7.85875 8.48733 8.82295 9.05394 9.53509 10.1634C9.56019 10.2045 9.6005 10.2349 9.64779 10.2481C9.69509 10.2614 9.7458 10.2566 9.7896 10.2348L12.5941 8.84444C12.618 8.83203 12.639 8.81505 12.656 8.79453C12.6729 8.774 12.6855 8.75035 12.6928 8.72499C12.7001 8.69964 12.7021 8.6731 12.6986 8.64699C12.6951 8.62087 12.6862 8.59572 12.6724 8.57304C11.51 6.59465 9.36134 5.51142 6.52992 5.51142C2.81016 5.51142 0.5 7.30887 0.5 10.1681C0.5 13.2035 3.31429 13.9701 5.81044 14.501C8.30659 15.0296 9.41762 15.2391 9.41762 16.1795C9.41762 17.1222 8.60515 17.565 6.98755 17.565C5.48986 17.565 4.38127 16.8937 3.70829 15.589C3.68473 15.5444 3.64401 15.5106 3.59498 15.495C3.54595 15.4794 3.49256 15.4832 3.44644 15.5057L0.649279 16.8627C0.601803 16.8866 0.565928 16.9278 0.549435 16.9772C0.532943 17.0267 0.537162 17.0805 0.561179 17.127C1.67221 19.3172 3.94811 20.5481 6.98999 20.5481C10.8639 20.5481 13.2035 18.7816 13.2035 15.8342C13.2035 12.8869 10.3769 12.0298 7.88567 11.5013L7.88323 11.4942ZM22.9091 5.51142C21.3184 5.51142 19.9137 6.06375 18.9054 7.04937C18.8916 7.06361 18.8736 7.07335 18.8539 7.07728C18.8342 7.08121 18.8137 7.07912 18.7952 7.07132C18.7768 7.06351 18.7613 7.05036 18.7508 7.03365C18.7403 7.01694 18.7353 6.99749 18.7366 6.97795V0.692838C18.7369 0.667627 18.7321 0.642605 18.7224 0.619222C18.7127 0.595839 18.6983 0.574561 18.6801 0.556622C18.6619 0.538684 18.6402 0.524443 18.6163 0.514723C18.5924 0.505003 18.5667 0.499998 18.5408 0.5H15.0291C15.0029 0.499992 14.9771 0.505072 14.953 0.514939C14.9289 0.524807 14.9071 0.539264 14.8889 0.557457C14.8706 0.57565 14.8563 0.597211 14.8468 0.620871C14.8372 0.644531 14.8326 0.66981 14.8333 0.695219V20.2029C14.8326 20.2283 14.8372 20.2536 14.8468 20.2772C14.8563 20.3009 14.8706 20.3224 14.8889 20.3406C14.9071 20.3588 14.9289 20.3733 14.953 20.3832C14.9771 20.393 15.0029 20.3981 15.0291 20.3981H18.5359C18.5623 20.3984 18.5884 20.3936 18.6127 20.3839C18.6371 20.3741 18.6592 20.3597 18.6777 20.3415C18.6962 20.3233 18.7108 20.3016 18.7204 20.2778C18.7301 20.254 18.7348 20.2285 18.7341 20.2029V11.6466C18.7341 9.99195 20.0263 8.7254 21.7662 8.7254C23.5037 8.7254 24.7665 9.96576 24.7665 11.6466V20.2029C24.7659 20.2285 24.7705 20.254 24.7802 20.2778C24.7899 20.3016 24.8044 20.3233 24.8229 20.3415C24.8414 20.3597 24.8635 20.3741 24.8879 20.3839C24.9123 20.3936 24.9384 20.3984 24.9647 20.3981H28.4716C28.4979 20.3984 28.524 20.3936 28.5484 20.3839C28.5728 20.3741 28.5949 20.3597 28.6134 20.3415C28.6319 20.3233 28.6464 20.3016 28.6561 20.2778C28.6658 20.254 28.6705 20.2285 28.6698 20.2029V11.6466C28.6698 8.05166 26.2715 5.51142 22.9091 5.51142ZM35.7887 4.95195C33.8848 4.95195 32.1008 5.52333 30.8209 6.35182C30.778 6.37878 30.7473 6.42063 30.735 6.46884C30.7228 6.51705 30.7298 6.56801 30.7548 6.61132L32.3015 9.20155C32.3142 9.22358 32.3313 9.24293 32.3517 9.25848C32.3722 9.27402 32.3956 9.28545 32.4207 9.2921C32.4457 9.29874 32.4719 9.30047 32.4976 9.29719C32.5234 9.29391 32.5482 9.28567 32.5707 9.27297C33.5416 8.69646 34.6586 8.39472 35.7961 8.40162C38.8551 8.40162 41.1065 10.5228 41.1065 13.325C41.1065 15.7128 39.3054 17.4793 37.0221 17.4793C35.1622 17.4793 33.8701 16.4175 33.8701 14.9153C33.8701 14.0558 34.2421 13.3511 35.2112 12.8536C35.2352 12.8417 35.2565 12.8251 35.2736 12.8048C35.2908 12.7845 35.3034 12.761 35.3108 12.7357C35.3181 12.7105 35.32 12.684 35.3164 12.658C35.3127 12.632 35.3036 12.607 35.2895 12.5846L33.831 10.161C33.8078 10.1215 33.7709 10.0915 33.7269 10.0762C33.6829 10.0609 33.6348 10.0614 33.5911 10.0777C31.6358 10.7895 30.2654 12.5012 30.2654 14.801C30.2654 18.2769 33.0846 20.8719 37.0197 20.8719C41.6131 20.8719 44.9168 17.746 44.9168 13.2654C44.9168 8.46114 41.0747 4.95195 35.7887 4.95195ZM55.1755 5.48286C53.4037 5.48286 51.8155 6.12565 50.6604 7.25888C50.5968 7.32315 50.4916 7.27554 50.4916 7.18984V5.82806C50.4922 5.80265 50.4876 5.77737 50.4781 5.75371C50.4685 5.73005 50.4542 5.70849 50.436 5.6903C50.4177 5.6721 50.3959 5.65765 50.3718 5.64778C50.3478 5.63791 50.3219 5.63283 50.2958 5.63284H46.877C46.8509 5.63283 46.825 5.63791 46.801 5.64778C46.7769 5.65765 46.7551 5.6721 46.7368 5.6903C46.7186 5.70849 46.7043 5.73005 46.6947 5.75371C46.6852 5.77737 46.6806 5.80265 46.6813 5.82806V25.3071C46.6809 25.3324 46.6858 25.3574 46.6954 25.3808C46.7051 25.4041 46.7195 25.4254 46.7377 25.4434C46.7559 25.4613 46.7776 25.4755 46.8015 25.4853C46.8255 25.495 46.8511 25.5 46.877 25.5H50.3839C50.41 25.5003 50.4359 25.4955 50.4601 25.486C50.4843 25.4764 50.5063 25.4622 50.5248 25.4442C50.5432 25.4262 50.5578 25.4049 50.5677 25.3813C50.5775 25.3578 50.5824 25.3326 50.5821 25.3071V18.9197C50.5821 18.834 50.6873 18.7911 50.751 18.8482C51.9498 19.9379 53.535 20.535 55.1755 20.5147C59.2917 20.5147 62.5 17.246 62.5 12.9988C62.5 8.75159 59.2868 5.48286 55.1755 5.48286ZM54.5123 17.2174C52.1728 17.2174 50.3986 15.389 50.3986 12.9726C50.3986 10.5562 52.1679 8.72778 54.5123 8.72778C56.8567 8.72778 58.6236 10.5252 58.6236 12.9726C58.6236 15.4176 56.8812 17.2174 54.5123 17.2174Z" fill="white"/>
</svg>
