<?xml version="1.0" encoding="UTF-8"?>
<svg id="Layer_1" data-name="Layer 1" xmlns="http://www.w3.org/2000/svg" version="1.1" viewBox="0 0 32 32">
  <defs>
    <style>
      .cls-1 {
        fill: #000;
        stroke-width: 0px;
      }
    </style>
  </defs>
  <path class="cls-1" d="M14.289,30.846c-1.727,0-3.131-1.405-3.131-3.131v-9.644L2.836,9.749c-.88-.892-1.363-2.061-1.363-3.296C1.473,3.883,3.563,1.793,6.133,1.793h19.735c2.569,0,4.659,2.09,4.659,4.659,0,1.24-.484,2.406-1.363,3.285l-8.321,8.322v5.975c0,1.005-.392,1.949-1.104,2.662l-3.228,3.228c-.586.585-1.395.922-2.22.922ZM6.133,5.021c-.789,0-1.431.642-1.431,1.431,0,.371.154.738.424,1.008l8.469,8.49c.501.488.792,1.182.792,1.897v9.655l3.074-3.074c.092-.099.154-.246.154-.384v-6.198c0-.72.282-1.398.792-1.908l8.469-8.479c.269-.27.423-.637.423-1.008,0-.789-.642-1.431-1.431-1.431H6.133Z"/>
</svg>