<?xml version="1.0" encoding="UTF-8"?>
<svg id="Layer_1" data-name="Layer 1" xmlns="http://www.w3.org/2000/svg" version="1.1" viewBox="0 0 100 100">
  <defs>
    <style>
      .cls-1 {
        fill: #000;
        stroke-width: 0px;
      }
    </style>
  </defs>
  <path class="cls-1" d="M32.221,9c2.451,0,4.445,1.994,4.445,4.445v18.777c0,2.451-1.994,4.445-4.445,4.445H13.445c-2.451,0-4.445-1.994-4.445-4.445V13.445c0-2.451,1.994-4.445,4.445-4.445h18.777M32.221,0H13.445C6.019,0,0,6.019,0,13.445v18.777C0,39.646,6.019,45.666,13.445,45.666h18.777c7.425,0,13.445-6.019,13.445-13.445V13.445C45.666,6.019,39.646,0,32.221,0h0Z"/>
  <path class="cls-1" d="M86.555,9c2.451,0,4.445,1.994,4.445,4.445v18.777c0,2.451-1.994,4.445-4.445,4.445h-18.777c-2.451,0-4.445-1.994-4.445-4.445V13.445c0-2.451,1.994-4.445,4.445-4.445h18.777M86.555,0h-18.777C60.354,0,54.334,6.019,54.334,13.445v18.777c0,7.425,6.019,13.445,13.445,13.445h18.777c7.425,0,13.445-6.019,13.445-13.445V13.445C100,6.019,93.981,0,86.555,0h0Z"/>
  <path class="cls-1" d="M32.221,63.334c2.451,0,4.445,1.994,4.445,4.445v18.777c0,2.451-1.994,4.445-4.445,4.445H13.445c-2.451,0-4.445-1.994-4.445-4.445v-18.777c0-2.451,1.994-4.445,4.445-4.445h18.777M32.221,54.334H13.445C6.019,54.334,0,60.354,0,67.779v18.777C0,93.981,6.019,100,13.445,100h18.777c7.425,0,13.445-6.019,13.445-13.445v-18.777c0-7.425-6.019-13.445-13.445-13.445h0Z"/>
  <path class="cls-1" d="M86.555,63.334c2.451,0,4.445,1.994,4.445,4.445v18.777c0,2.451-1.994,4.445-4.445,4.445h-18.777c-2.451,0-4.445-1.994-4.445-4.445v-18.777c0-2.451,1.994-4.445,4.445-4.445h18.777M86.555,54.334h-18.777c-7.425,0-13.445,6.019-13.445,13.445v18.777c0,7.425,6.019,13.445,13.445,13.445h18.777c7.425,0,13.445-6.019,13.445-13.445v-18.777c0-7.425-6.019-13.445-13.445-13.445h0Z"/>
</svg>