<?xml version="1.0" encoding="UTF-8"?>
<svg id="Layer_1" data-name="Layer 1" xmlns="http://www.w3.org/2000/svg" version="1.1" viewBox="0 0 100 100">
  <defs>
    <style>
      .cls-1 {
        fill: #fff;
        stroke-width: 0px;
      }
    </style>
  </defs>
  <path class="cls-1" d="M9.211,19.269c-2.735,0-4.96-2.225-4.96-4.959s2.225-4.96,4.96-4.96h81.578c2.734,0,4.959,2.225,4.959,4.96s-2.225,4.959-4.959,4.959H9.211Z"/>
  <path class="cls-1" d="M9.211,54.96c-2.735,0-4.96-2.225-4.96-4.96s2.225-4.96,4.96-4.96h81.578c2.734,0,4.959,2.225,4.959,4.96s-2.225,4.96-4.959,4.96H9.211Z"/>
  <path class="cls-1" d="M9.211,90.651c-2.735,0-4.96-2.226-4.96-4.961s2.225-4.959,4.96-4.959h81.578c2.734,0,4.959,2.225,4.959,4.959s-2.225,4.961-4.959,4.961H9.211Z"/>
</svg>