<?xml version="1.0" encoding="UTF-8"?>
<svg id="Layer_1" data-name="Layer 1" xmlns="http://www.w3.org/2000/svg" version="1.1" viewBox="0 0 110 110">
  <defs>
    <style>
      .cls-1 {
        fill: #000;
        stroke-width: 0px;
      }
    </style>
  </defs>
  <path class="cls-1" d="M52.508,102.003c.663.465,1.463.724,2.264.724h.427c.823,0,1.6-.251,2.264-.724,27.802-19.861,44.332-39.219,44.994-39.98,5.388-6.188,8.04-14.107,7.469-22.284-.564-8.177-4.291-15.646-10.479-21.034-6.188-5.388-14.122-8.017-22.284-7.469-8.177.564-15.646,4.291-21.034,10.479l-1.128,1.311-1.128-1.311c-5.388-6.188-12.857-9.907-21.034-10.479-8.177-.564-16.096,2.088-22.284,7.469C4.365,24.094.646,31.562.075,39.739c-.564,8.177,2.088,16.096,7.431,22.237.678.808,17.201,20.165,45.001,40.026h.001Z"/>
</svg>