<?xml version="1.0" encoding="UTF-8"?>
<svg id="Layer_1" data-name="Layer 1" xmlns="http://www.w3.org/2000/svg" version="1.1" viewBox="0 0 110 110">
  <defs>
    <style>
      .cls-1 {
        fill: #fff;
        stroke-width: 0px;
      }
    </style>
  </defs>
  <path class="cls-1" d="M52.508,102.003c.663.465,1.463.724,2.264.724h.427c.823,0,1.6-.251,2.264-.724,27.802-19.861,44.332-39.219,44.994-39.98,5.388-6.188,8.04-14.107,7.469-22.284-.564-8.177-4.291-15.646-10.479-21.034-6.188-5.388-14.122-8.017-22.284-7.469-8.177.564-15.646,4.291-21.034,10.479l-1.128,1.311-1.128-1.311c-5.388-6.188-12.857-9.907-21.034-10.479-8.177-.564-16.096,2.088-22.284,7.469C4.365,24.094.646,31.562.075,39.739c-.564,8.177,2.088,16.096,7.431,22.237.678.808,17.201,20.165,45.001,40.026h.001ZM7.848,40.272c.427-6.104,3.201-11.668,7.827-15.684,4.329-3.765,9.679-5.617,15.021-5.617,6.402,0,12.781,2.652,17.285,7.865l3.864,4.451c.739.861,1.814,1.349,2.949,1.349h.427c1.128,0,2.202-.488,2.949-1.349l3.864-4.451c8.292-9.519,22.787-10.532,32.306-2.241,4.626,4.016,7.392,9.58,7.827,15.684.427,6.104-1.562,11.995-5.601,16.66-.152.198-15.806,18.473-41.535,37.221C29.295,75.412,13.648,57.115,13.457,56.892c-4.047-4.626-6.036-10.517-5.609-16.621h0Z"/>
</svg>