<?xml version="1.0" encoding="UTF-8"?>
<svg id="Layer_1" data-name="Layer 1" xmlns="http://www.w3.org/2000/svg" version="1.1" viewBox="0 0 110 110">
  <defs>
    <style>
      .cls-1 {
        fill: #00151c;
        stroke-width: 0px;
      }
    </style>
  </defs>
  <path class="cls-1" d="M54.776,102.889c-.98,0-1.97-.316-2.788-.889C24.194,82.142,7.766,62.71,7.604,62.517,2.183,56.286-.494,48.278.079,39.979c.579-8.293,4.353-15.867,10.627-21.33,5.673-4.933,12.922-7.65,20.41-7.65.725,0,1.461.025,2.187.076,8.294.58,15.869,4.354,21.331,10.626l.367.427.363-.422c5.473-6.285,13.048-10.059,21.335-10.63.714-.048,1.436-.072,2.146-.072,7.525,0,14.787,2.716,20.45,7.647,6.282,5.47,10.055,13.045,10.627,21.33.579,8.297-2.111,16.323-7.575,22.598-2.965,3.429-18.785,21.15-44.358,39.418-.822.585-1.788.894-2.794.894h-.42ZM9.672,40.638c-.401,5.724,1.47,11.267,5.268,15.608.633.74,15.474,17.999,40.09,36.032,24.764-18.147,39.89-35.787,40.028-35.955,3.815-4.408,5.684-9.966,5.285-15.677-.408-5.738-3.019-10.969-7.35-14.73-3.904-3.401-8.911-5.273-14.098-5.273-6.24,0-12.161,2.689-16.245,7.377l-3.794,4.371c-.917,1.057-2.243,1.663-3.637,1.663h-.42c-1.405,0-2.732-.608-3.641-1.667l-3.792-4.367c-4.055-4.695-9.972-7.386-16.234-7.386-5.186,0-10.196,1.874-14.108,5.275-4.34,3.768-6.95,9-7.351,14.731h0Z"/>
</svg>