<?xml version="1.0" encoding="UTF-8"?>
<svg id="Layer_1" data-name="Layer 1" xmlns="http://www.w3.org/2000/svg" version="1.1" viewBox="0 0 100 100">
  <defs>
    <style>
      .cls-1 {
        fill: none;
        stroke: #fff;
        stroke-linecap: round;
        stroke-linejoin: round;
        stroke-width: 8px;
      }

      .cls-2 {
        fill: #fff;
        stroke-width: 0px;
      }
    </style>
  </defs>
  <path class="cls-2" d="M50,9.886c22.179,0,40.114,17.935,40.114,40.114s-17.935,40.114-40.114,40.114S9.886,72.179,9.886,50,27.821,9.886,50,9.886M50,2.083C23.577,2.083,2.083,23.577,2.083,50s21.494,47.917,47.917,47.917,47.917-21.494,47.917-47.917S76.423,2.083,50,2.083h0Z"/>
  <circle class="cls-2" cx="50.562" cy="74.756" r="6.309"/>
  <path class="cls-1" d="M36.284,37.567c0-7.969,6.641-14.444,14.61-14.112,7.471.166,13.614,6.309,13.78,13.78.166,5.977-3.486,11.29-8.633,13.448-3.32,1.494-5.645,4.483-5.645,8.135h0"/>
</svg>