<?xml version="1.0" encoding="UTF-8"?>
<svg id="Layer_1" data-name="Layer 1" xmlns="http://www.w3.org/2000/svg" version="1.1" viewBox="0 0 110 110">
  <defs>
    <style>
      .cls-1 {
        fill: #fff;
        fill-rule: evenodd;
        stroke-width: 0px;
      }
    </style>
  </defs>
  <path class="cls-1" d="M108.107,98.953l-26.536-26.536c5.662-7.561,9.017-16.949,9.017-27.12C90.588,20.28,70.307,0,45.297,0S0,20.28,0,45.297s20.28,45.291,45.297,45.291c10.171,0,19.559-3.355,27.12-9.017l26.536,26.536c2.53,2.524,6.624,2.524,9.154,0,2.524-2.53,2.524-6.624,0-9.154ZM12.939,45.297c0-17.871,14.486-32.358,32.358-32.358s32.351,14.486,32.351,32.358-14.486,32.351-32.351,32.351S12.939,63.162,12.939,45.297Z"/>
</svg>