<?xml version="1.0" encoding="UTF-8"?>
<svg id="Layer_1" data-name="Layer 1" xmlns="http://www.w3.org/2000/svg" version="1.1" viewBox="0 0 110 110">
  <defs>
    <style>
      .cls-1 {
        fill: #fff;
        fill-rule: evenodd;
        stroke-width: 0px;
      }
    </style>
  </defs>
  <path class="cls-1" d="M102.173,107.004c-1.291,0-2.505-.502-3.419-1.414l-26.686-26.685-1.012.758c-7.401,5.543-16.215,8.473-25.487,8.473-23.475,0-42.572-19.095-42.572-42.566S22.094,2.996,45.568,2.996s42.566,19.098,42.566,42.572c0,9.272-2.93,18.086-8.473,25.487l-.758,1.012,26.687,26.687c1.879,1.884,1.879,4.952-.002,6.837-.911.909-2.125,1.412-3.416,1.412ZM45.568,12.657c-18.147,0-32.911,14.764-32.911,32.911s14.764,32.905,32.911,32.905,32.905-14.761,32.905-32.905S63.712,12.657,45.568,12.657Z"/>
</svg>