<?xml version="1.0" encoding="UTF-8"?>
<svg id="Layer_1" data-name="Layer 1" xmlns="http://www.w3.org/2000/svg" version="1.1" viewBox="0 0 100 100">
  <defs>
    <style>
      .cls-1 {
        fill: #fff;
        stroke-width: 0px;
      }
    </style>
  </defs>
  <path class="cls-1" d="M51.6,52.1c-7.9,0-14.4,3.9-19.1,8.1-1.3-1.4-2.3-2.6-3-3.5-1.1-1.5-3.2-1.8-4.6-.7-1.5,1.1-1.8,3.2-.7,4.6.2.2,1.5,2,3.7,4.3-2.4,2.8-3.7,5-3.8,5.2-.9,1.6-.4,3.6,1.1,4.5,1.6.9,3.6.4,4.5-1.1,0,0,1.1-1.8,2.9-4,5.1,4.5,11.9,8.9,19,8.9,11.9,0,18.2-8.6,18.2-13.2s-6.2-13.2-18.2-13.2ZM51,58.8c-1.4,4.4-1.4,8.8,0,13.1-4.7-.2-9.7-3.4-13.8-7,3.6-3.1,8.4-5.9,13.8-6.1ZM57.6,70.7c-1.3-3.6-1.3-7.1,0-10.7,3.9,1.8,5.5,4.8,5.6,5.3,0,.6-1.7,3.7-5.6,5.5Z"/>
  <path class="cls-1" d="M80.3,17.6l2.4-7.3c.3-1,.2-2.1-.5-3-.6-.9-1.6-1.4-2.7-1.4H20.2c-1.1,0-2.1.5-2.7,1.4-.6.9-.8,2-.5,3l2.4,7.3C7.9,25,3.7,40,3.7,52.1c0,18.7,11.2,35.4,28.4,42.7.4.2.8.3,1.3.3h33c.4,0,.9,0,1.3-.3,16.5-6.9,28.4-24.8,28.4-42.7s-4.2-27.1-15.8-34.5ZM25,22.1c1.5-.7,2.2-2.4,1.7-4l-1.9-5.6h50.3l-1.9,5.6c-.5,1.6.2,3.3,1.7,4,4.1,2,7,5.1,9.1,8.6-.3.1-.5.2-.8.3-1.1.5-3,1.3-3.6,1.4-.6,0-2.5-.9-3.6-1.4-2.2-1-4.3-1.9-6.3-1.9s-4.1.9-6.3,1.9c-1.1.5-3,1.3-3.6,1.4-.6,0-2.5-.9-3.6-1.4-2.2-1-4.3-1.9-6.3-1.9s-4.1.9-6.3,1.9c-1.1.5-3,1.3-3.6,1.4-.6,0-2.5-.9-3.6-1.4-2.2-1-4.3-1.9-6.3-1.9s-4.1.9-6.3,1.9c-1.1.5-3,1.3-3.6,1.4-.6,0-2.5-.9-3.6-1.4-.3-.1-.5-.2-.8-.3,2.1-3.4,5-6.5,9.1-8.6ZM65.8,88.4h-31.7c-14.5-6.3-23.8-20.5-23.8-36.3s.2-8.8,2.7-15.5c.3.1.6.3.9.4,2.2,1,4.3,1.9,6.3,1.9s4.1-.9,6.3-1.9c1.1-.5,3-1.3,3.6-1.4.6,0,2.5.9,3.6,1.4,2.2,1,4.3,1.9,6.3,1.9s4.1-.9,6.3-1.9c1.1-.5,3-1.3,3.6-1.4.6,0,2.5.9,3.6,1.4,2.2,1,4.3,1.9,6.3,1.9s4.1-.9,6.3-1.9c1.1-.5,3-1.3,3.6-1.4.6,0,2.5.9,3.6,1.4,2.2,1,4.3,1.9,6.3,1.9s4.1-.9,6.3-1.9c.3-.1.6-.3.9-.4,2.5,6.8,2.7,13.5,2.7,15.5,0,15.1-10,30.2-23.8,36.3Z"/>
  <path class="cls-1" d="M73,45.5c0,1.8-1.5,3.3-3.3,3.3s-3.3-1.5-3.3-3.3,1.5-3.3,3.3-3.3,3.3,1.5,3.3,3.3Z"/>
  <path class="cls-1" d="M82.9,55.4c0,1.8-1.5,3.3-3.3,3.3s-3.3-1.5-3.3-3.3,1.5-3.3,3.3-3.3,3.3,1.5,3.3,3.3Z"/>
</svg>