<?xml version="1.0" encoding="UTF-8"?>
<svg id="Layer_1" data-name="Layer 1" xmlns="http://www.w3.org/2000/svg" version="1.1" xmlns:serif="http://www.serif.com/" viewBox="0 0 32 32">
  <defs>
    <style>
      .cls-1 {
        fill: #D3F0FD;
        fill-rule: evenodd;
        stroke-width: 0px;
      }
    </style>
  </defs>
  <path class="cls-1" d="M14.933,1.067c0-.589.478-1.067,1.067-1.067s1.067.478,1.067,1.067v1.067c0,.589-.478,1.067-1.067,1.067s-1.067-.478-1.067-1.067v-1.067ZM7.609,3.601c-.294-.51-.119-1.163.39-1.457s1.163-.119,1.457.39l.692,1.199c.294.51.119,1.163-.39,1.457-.51.294-1.163.119-1.457-.39l-.692-1.199ZM2.534,9.831c-.51-.294-.685-.947-.39-1.457.294-.51.947-.685,1.457-.39l1.199.692c.51.294.685.947.39,1.457-.294.51-.947.685-1.457.39l-1.199-.692ZM2.133,17.067c-.589,0-1.067-.478-1.067-1.067s.478-1.067,1.067-1.067h1.067c.589,0,1.067.478,1.067,1.067s-.478,1.067-1.067,1.067h-1.067ZM28.8,17.067c-.589,0-1.067-.478-1.067-1.067s.478-1.067,1.067-1.067h1.067c.589,0,1.067.478,1.067,1.067s-.478,1.067-1.067,1.067h-1.067ZM27.618,10.524c-.51.294-1.163.119-1.457-.39-.294-.51-.119-1.163.39-1.457l1.182-.683c.51-.294,1.163-.119,1.457.39.294.51.119,1.164-.39,1.457l-1.182.683ZM23.698,4.8c-.294.51-.947.685-1.457.39-.51-.294-.685-.947-.39-1.457l.692-1.199c.294-.51.947-.685,1.457-.39s.685.947.39,1.457l-.692,1.199ZM21.334,27.733c0,.633,0,1.067,0,1.067,0,.849-.337,1.663-.937,2.262-.6.601-1.414.938-2.263.938h-4.267c-.849,0-1.663-.337-2.263-.938-.6-.599-.937-1.413-.937-2.262v-1.067h10.667ZM10.666,25.6v-1.551c0-.343-.166-.667-.445-.866l-.002-.002c-2.478-1.785-4.086-4.697-4.086-7.981,0-5.445,4.421-9.867,9.867-9.867s9.867,4.421,9.867,9.867c0,3.283-1.607,6.194-4.076,7.987l-.005.004c-.276.198-.44.517-.44.857v.007c-.003.451-.006.992-.007,1.545h-10.671Z"/>
</svg>