<?xml version="1.0" encoding="UTF-8"?>
<svg id="Layer_1" data-name="Layer 1" xmlns="http://www.w3.org/2000/svg" version="1.1" viewBox="0 0 100 100">
  <defs>
    <style>
      .cls-1 {
        fill: #fff;
        stroke-width: 0px;
      }
    </style>
  </defs>
  <path class="cls-1" d="M34.824,94.933c-.854,0-1.656-.333-2.26-.937-4.509-4.96-7.37-11.119-8.253-17.792l-.06-.455-.456-.061c-6.672-.883-12.831-3.743-17.812-8.272-1.227-1.229-1.226-3.256.02-4.5,8.426-8.426,24.353-8.523,25.026-8.523,2.59.023,5.134.751,7.352,2.104l.403.247,4.674-4.686-.536-.417c-2.762-2.146-5.844-3.8-9.16-4.914-1.672-.558-2.579-2.371-2.021-4.041.436-1.307,1.653-2.186,3.03-2.186.342,0,.683.056,1.011.165,4.304,1.45,8.268,3.649,11.779,6.534l.42.345,4.974-4.963-.5-.421c-4.046-3.406-8.637-5.996-13.645-7.697l-1.194-.408c-.149-.042-.26-.079-.368-.122-.794-.313-1.419-.917-1.758-1.7-.34-.783-.354-1.651-.041-2.445.485-1.229,1.652-2.022,2.973-2.022.401,0,.795.076,1.171.224l1.236.41c5.973,2.023,11.427,5.138,16.207,9.257l.422.364,5.097-5.097-11.021-11.02c-1.247-1.249-1.246-3.276,0-4.521l.651-.642c7.372-7.421,17.593-11.675,28.047-11.675h.12c8.04,0,14.579,6.54,14.579,14.577.032,10.5-4.222,20.765-11.671,28.164l-.649.659c-.603.602-1.404.934-2.257.934h0c-.854,0-1.656-.333-2.26-.937l-11.021-11.02-5.096,5.096.364.422c4.117,4.78,7.232,10.234,9.257,16.211l.397,1.201c.552,1.667-.354,3.476-2.021,4.032-.321.113-.647.169-.979.169-1.38-.016-2.584-.896-3.014-2.189l-.408-1.198c-1.702-5.008-4.292-9.599-7.698-13.644l-.422-.501-4.962,4.974.345.42c2.884,3.51,5.083,7.474,6.535,11.782.27.808.208,1.674-.174,2.437-.382.764-1.038,1.332-1.848,1.602-.325.103-.671.157-1.019.16-1.369-.002-2.586-.878-3.021-2.181-1.114-3.316-2.768-6.398-4.915-9.161l-.417-.536-4.684,4.673.243.402c1.339,2.221,2.054,4.765,2.067,7.357,0,.671-.097,16.598-8.522,25.023-.606.604-1.408.937-2.26.937ZM31.03,60.781c-.398,0-9.843.044-16.739,3.87l-.883.49.853.541c3.883,2.464,8.366,3.808,12.965,3.887,1.771,0,3.205,1.434,3.205,3.194.073,4.613,1.417,9.101,3.888,12.986l.55.865.485-.904c3.058-5.704,3.866-13.445,3.866-16.741,0-4.516-3.673-8.188-8.188-8.188ZM80.255,11.456c-7.818,0-15.415,2.775-21.392,7.815l-.5.422,21.984,21.896.421-.5c5.038-5.997,7.8-13.613,7.775-21.447,0-4.513-3.673-8.187-8.188-8.187h-.101Z"/>
</svg>