<?xml version="1.0" encoding="UTF-8"?>
<svg id="Layer_1" data-name="Layer 1" xmlns="http://www.w3.org/2000/svg" version="1.1" viewBox="0 0 1024 1024">
  <defs>
    <style>
      .cls-1 {
        fill: #D3F0FD;
        stroke-width: 0px;
      }
    </style>
  </defs>
  <path class="cls-1" d="M653.044,768.65c-.339-10.847-1.243-21.695-2.825-32.429-.113-.565-.113-1.13-.226-1.695-.678-4.181-1.356-8.248-2.26-12.429-2.034-9.83-4.52-19.435-7.684-28.926v-.113c-1.13-3.164-2.26-6.215-3.503-9.378-8.474-21.13-20-40.678-34.576-57.965-.339-.452-.678-.791-1.017-1.243-.339-.452-.678-.791-1.017-1.243-2.712-3.051-8.248-8.813-8.248-8.813l-3.051-3.051s-3.842-3.616-5.763-5.424c-20.678-18.644-44.745-33.333-70.508-44.293-46.553-19.774-96.835-28.7-147.117-31.638-44.067-2.599-88.474-.904-132.089,5.876-69.152,10.847-141.128,37.853-185.761,94.236-22.373,28.248-36.836,61.694-43.05,97.174C-.508,754.978.056,782.774.056,810.797v39.209c0,3.503-.226,6.893.226,10.282,1.469,12.09,7.684,22.599,17.514,29.717,10.96,7.91,22.938,7.684,35.48,7.684h557.395c11.073,0,21.243-4.068,29.039-11.299h-.339c3.39-3.277,6.328-7.006,8.587-11.299,2.26-4.294,3.842-9.039,4.633-14.011v-.113c.565-4.746.565-9.604.565-14.463v-65.423c.113-.339.113-.678.226-1.017-.113-3.729-.226-7.571-.339-11.412Z"/>
  <path class="cls-1" d="M1024,793.735c0,1.017-.113,1.921-.339,2.712v59.547c0,11.525-2.486,22.373-10.847,30.734-7.345,7.345-16.949,10.96-27.231,11.073-22.147.226-44.406,0-66.553,0h-231.41c2.034-3.616,3.729-7.458,5.085-11.299,1.356-3.729,2.26-7.458,3.051-11.299,2.034-9.943,2.486-20.226,2.486-30.508v-60.451c.226-1.921.339-3.842.339-5.763-.226-53.672-12.203-109.49-42.033-154.914-3.164-4.746-6.328-9.378-9.717-13.898-2.486-3.39-5.085-6.554-7.797-9.83s-5.424-6.441-8.248-9.491c25.084-6.102,50.847-9.604,76.609-11.186,42.033-2.599,84.745-.791,126.213,6.893,35.819,6.667,71.638,18.418,102.485,38.079,26.553,16.949,49.265,39.887,64.293,67.796,16.723,31.299,23.39,66.553,23.616,101.807Z"/>
  <path class="cls-1" d="M899.369,379.276h0c0,.226-.226.339-.226.565,0,.113-.113.113-.113.226-.113,8.136-.904,16.045-2.034,24.068-9.491,63.502-60.564,116.496-123.388,129.038-64.745,12.881-131.976-16.271-166.213-72.881-34.237-56.723-28.022-130.055,13.672-181.015,41.242-50.508,113.219-70.169,174.348-47.57,61.355,22.712,103.05,81.468,103.728,146.891,0,.226.226.452.226.678Z"/>
  <path class="cls-1" d="M507.283,297.13h0c0,.339.226.565.226.678-.113,9.378-.791,18.757-2.26,28.022-11.186,73.22-69.83,134.349-142.484,148.812-74.349,14.802-151.637-18.644-191.184-83.502-39.887-65.423-32.881-150.507,15.48-209.489,47.683-58.191,130.62-80.79,201.241-54.802,70.847,26.101,118.53,94.123,119.208,169.603,0,.226-.226.452-.226.678Z"/>
</svg>