<?xml version="1.0" encoding="UTF-8"?>
<svg id="Layer_1" data-name="Layer 1" xmlns="http://www.w3.org/2000/svg" version="1.1" viewBox="0 0 110 110">
  <defs>
    <style>
      .cls-1 {
        fill: #fff;
        stroke-width: 0px;
      }
    </style>
  </defs>
  <path class="cls-1" d="M99.04,23.837l-9.914-3.667-3.667-9.914c-.513-1.399-1.856-2.324-3.338-2.324s-2.825.925-3.338,2.324l-3.667,9.914-9.914,3.667c-1.399.513-2.324,1.856-2.324,3.338s.925,2.825,2.324,3.338l9.914,3.667,3.667,9.914c.513,1.399,1.856,2.324,3.338,2.324s2.825-.925,3.338-2.324l3.667-9.914,9.914-3.667c1.399-.513,2.324-1.856,2.324-3.338s-.925-2.825-2.324-3.338ZM85.102,28.072c-.97.357-1.739,1.126-2.112,2.112l-.897,2.413-.897-2.413c-.357-.97-1.126-1.739-2.112-2.112l-2.413-.897,2.413-.897c.97-.357,1.739-1.126,2.112-2.112l.897-2.413.897,2.413c.357.97,1.126,1.739,2.112,2.112l2.413.897-2.413.897Z"/>
  <path class="cls-1" d="M77.64,61.643l-21.902-8.103-8.103-21.885c-.513-1.399-1.856-2.324-3.338-2.324s-2.825.925-3.338,2.324l-8.103,21.885-21.885,8.103c-1.399.513-2.324,1.856-2.324,3.338s.925,2.825,2.324,3.338l21.885,8.103,8.103,21.902c.513,1.399,1.856,2.324,3.338,2.324s2.825-.925,3.338-2.324l8.103-21.902,21.902-8.103c1.399-.513,2.324-1.856,2.324-3.338s-.925-2.825-2.324-3.338ZM51.732,70.303c-.97.357-1.739,1.126-2.112,2.112l-5.322,14.395-5.322-14.395c-.357-.97-1.126-1.739-2.112-2.112l-14.395-5.322,14.395-5.322c.97-.357,1.739-1.126,2.112-2.112l5.322-14.395,5.322,14.395c.357.97,1.126,1.739,2.112,2.112l14.395,5.322-14.395,5.322Z"/>
  <path class="cls-1" d="M89.237,86.381c0,4.754-7.133,4.754-7.133,0s7.133-4.754,7.133,0"/>
  <path class="cls-1" d="M26.465,25.035c0,4.754-7.133,4.754-7.133,0s7.133-4.754,7.133,0"/>
</svg>