<?xml version="1.0" encoding="UTF-8"?>
<svg id="Layer_1" data-name="Layer 1" xmlns="http://www.w3.org/2000/svg" version="1.1" viewBox="0 0 110 110">
  <defs>
    <style>
      .cls-1 {
        fill: #000;
        stroke-width: 0px;
      }
    </style>
  </defs>
  <path class="cls-1" d="M55,110c-3.178,0-12.952,0-37.748-38.358-4.887-7.573-7.454-16.368-7.454-25.531C9.798,22.288,27.88,2.13,50.967.173c12.952-1.098,25.288,3.054,34.818,11.73,9.163,8.547,14.417,20.521,14.417,32.861v1.346c0,9.039-2.567,17.958-7.454,25.531-24.797,38.358-34.57,38.358-37.748,38.358h0ZM55,30.59c-8.065,0-14.66,6.595-14.66,14.66s6.595,14.66,14.66,14.66,14.66-6.595,14.66-14.66-6.595-14.66-14.66-14.66Z"/>
</svg>