<?xml version="1.0" encoding="UTF-8"?>
<svg id="Layer_1" data-name="Layer 1" xmlns="http://www.w3.org/2000/svg" version="1.1" viewBox="0 0 100 100">
  <defs>
    <style>
      .cls-1 {
        fill: #D3F0FD;
        stroke-width: 0px;
      }

      .cls-2 {
        fill: none;
        stroke: #D3F0FD;
        stroke-linecap: round;
        stroke-linejoin: round;
        stroke-width: 4.3px;
      }

      .cls-3 {
        display: none;
      }
    </style>
  </defs>
  <path class="cls-1" d="M62.5,40c0-17.231-14.019-31.25-31.25-31.25S0,22.769,0,40c0,5.074,1.244,10.09,3.601,14.563l-1.091,11.451c-.07.743.194,1.477.721,2.005.526.527,1.266.791,2.005.721l11.451-1.091c4.472,2.357,9.489,3.601,14.562,3.601,17.231,0,31.25-14.019,31.25-31.25ZM31.25,56.25c-1.381,0-2.5-1.119-2.5-2.5s1.119-2.5,2.5-2.5,2.5,1.119,2.5,2.5-1.119,2.5-2.5,2.5ZM33.75,43.434v2.816c0,1.38-1.12,2.5-2.5,2.5s-2.5-1.12-2.5-2.5v-5c0-1.38,1.12-2.5,2.5-2.5,2.758,0,5-2.242,5-5s-2.242-5-5-5-5,2.242-5,5c0,1.38-1.12,2.5-2.5,2.5s-2.5-1.12-2.5-2.5c0-5.514,4.486-10,10-10s10,4.486,10,10c0,4.651-3.191,8.57-7.5,9.684ZM96.399,74.563l1.091,11.451c.07.743-.194,1.477-.721,2.005s-1.264.789-2.005.721l-11.451-1.091c-4.473,2.357-9.489,3.601-14.563,3.601-11.704,0-22.157-6.474-27.508-16.406,15.159-4.34,26.258-18.291,26.258-34.844,0-3.871-.613-7.599-1.737-11.097.99-.094,1.985-.153,2.987-.153,17.231,0,31.25,14.019,31.25,31.25,0,5.074-1.244,10.09-3.601,14.563Z"/>
  <g class="cls-3">
    <polyline class="cls-2" points="66.124 72.336 75.174 51.25 84.115 72.336"/>
    <line class="cls-2" x1="69.312" y1="64.908" x2="81.022" y2="64.908"/>
  </g>
</svg>