<?xml version="1.0" encoding="UTF-8"?>
<svg id="Layer_1" data-name="Layer 1" xmlns="http://www.w3.org/2000/svg" version="1.1" viewBox="0 0 32 32">
  <defs>
    <style>
      .cls-1 {
        fill: #D3F0FD;
        stroke-width: 0px;
      }
    </style>
  </defs>
  <path class="cls-1" d="M30.421,11.497c-.996-.881-2.216-1.105-2.993-1.148-1.87-4.942-6.288-8.422-11.427-8.422S6.444,5.409,4.574,10.351c-.777.044-1.996.263-2.996,1.148-1.047.927-1.578,2.312-1.578,4.119s.531,3.195,1.578,4.121c.999.883,2.219,1.105,2.996,1.148,1.693,4.471,5.473,7.741,9.987,8.323.278.511.815.862,1.44.862.908,0,1.644-.738,1.644-1.646s-.736-1.644-1.644-1.644c-.538,0-1.012.263-1.312.661-5.237-.729-9.304-5.748-9.304-11.824,0-1.899.409-3.692,1.115-5.287,1.949.2,7.714.466,11.938-2.755.997,1.047,3.155,2.874,6.064,2.874.327,0,.668-.032,1.014-.082.696,1.587,1.099,3.364,1.099,5.251,0,1.32-.19,2.615-.565,3.854-.088.12-.148.265-.167.423-.055.48.289.917.77.977.007,0,.027.002.061.007.02.002.039.002.059.005.485.034,2.279.069,3.649-1.146,1.047-.927,1.578-2.314,1.578-4.121s-.532-3.195-1.579-4.121Z"/>
  <circle class="cls-1" cx="11.229" cy="13.84" r="1.645"/>
  <circle class="cls-1" cx="20.771" cy="13.839" r="1.645"/>
  <path class="cls-1" d="M18.584,20.165c-1.426,1.426-3.745,1.426-5.171,0-.345-.345-.904-.345-1.249,0s-.345.904,0,1.249c1.056,1.057,2.446,1.585,3.834,1.585s2.777-.526,3.834-1.585c.345-.345.345-.904,0-1.249s-.903-.345-1.248,0Z"/>
</svg>