<?xml version="1.0" encoding="UTF-8"?>
<svg id="Layer_1" data-name="Layer 1" xmlns="http://www.w3.org/2000/svg" version="1.1" viewBox="0 0 110 110">
  <defs>
    <style>
      .cls-1 {
        fill: #000;
        stroke-width: 0px;
      }
    </style>
  </defs>
  <path class="cls-1" d="M101.802,0h-63.238c-4.552,0-8.236,3.684-8.236,8.236v86.622c0,8.341-5.526,15.143-9.957,15.143h77.287c7.811,0,12.385-9.823,12.385-22.002V8.241C110.043,3.689,106.306.005,101.807.005l-.005-.005ZM44.042,16.529c0-1.535,1.228-2.763,2.763-2.763h5.526c1.535,0,2.763,1.228,2.763,2.763v5.473c0,1.535-1.228,2.763-2.763,2.763h-5.526c-1.535,0-2.763-1.228-2.763-2.763v-5.473ZM93.514,89.384h-46.762c-2.302,0-4.144-1.842-4.144-4.144s1.842-4.144,4.144-4.144h46.762c2.302,0,4.144,1.842,4.144,4.144s-1.842,4.144-4.144,4.144ZM93.514,67.382h-46.762c-2.302,0-4.144-1.842-4.144-4.144s1.842-4.144,4.144-4.144h46.762c2.302,0,4.144,1.842,4.144,4.144s-1.842,4.144-4.144,4.144ZM93.514,45.385h-46.762c-2.302,0-4.144-1.842-4.144-4.144s1.842-4.144,4.144-4.144h46.762c2.302,0,4.144,1.842,4.144,4.144s-1.842,4.144-4.144,4.144ZM93.514,23.383h-27.528c-2.302,0-4.144-1.842-4.144-4.144s1.842-4.144,4.144-4.144h27.528c2.302,0,4.144,1.842,4.144,4.144s-1.842,4.144-4.144,4.144Z"/>
  <path class="cls-1" d="M24.803,94.857v-56.384h-13.761C4.955,38.473.043,43.438.043,49.472v45.38c0,4.197,1.688,7.982,4.398,10.692,2.149,2.149,4.912,3.631,7.982,4.197,7.008-1.281,12.38-7.42,12.38-14.836v-.048Z"/>
</svg>