<?xml version="1.0" encoding="UTF-8"?>
<svg id="Layer_1" data-name="Layer 1" xmlns="http://www.w3.org/2000/svg" version="1.1" viewBox="0 0 110 110">
  <defs>
    <style>
      .cls-1 {
        fill: #000;
        stroke-width: 0px;
      }
    </style>
  </defs>
  <path class="cls-1" d="M5.07,29.087c.424-3.121,2.998-5.353,6.124-5.353h47.737c1.811,0,3.588.765,4.875,2.108,1.287,1.337,1.981,3.137,1.899,4.948h.002s-3.66,43.21-3.66,43.21c-.137,3.267-2.789,5.795-6.152,5.795h-16.987c.119-.701.194-1.418.194-2.156,0-7.131-5.805-12.937-12.937-12.937s-12.937,5.805-12.937,12.937c0,.738.075,1.455.194,2.156h-6.645c-1.924,0-3.775-.846-5.074-2.323-1.304-1.477-1.902-3.407-1.646-5.299L5.07,29.087ZM34.483,75.484c-.965-3.709-4.312-6.468-8.317-6.468s-7.352,2.76-8.317,6.468c-.07.27-.129.539-.172.819-.075.437-.135.879-.135,1.337s.059.9.135,1.337c.043.28.102.55.172.819.965,3.709,4.312,6.468,8.317,6.468s7.352-2.76,8.317-6.468c.07-.27.129-.539.172-.819.075-.437.135-.879.135-1.337s-.059-.9-.135-1.337c-.043-.28-.102-.55-.172-.819ZM109.916,58.935l-1.353,15.114c-.41,3.31-3.17,5.746-6.425,5.746h-2.857c.119-.701.194-1.418.194-2.156,0-7.131-5.805-12.937-12.937-12.937s-12.937,5.805-12.937,12.937c0,.738.075,1.455.194,2.156h-1.897c-1.822,0-3.568-.776-4.792-2.129s-1.822-3.17-1.644-4.986l3.45-38.788c.329-3.342,3.094-5.843,6.436-5.843h12.84c2.404,0,4.576,1.304,5.703,3.418l14.803,21.038c.065.086.119.178.167.275.954,1.903,1.321,4.037,1.056,6.156h0ZM99.518,51.766c0-.582-.232-1.116-.609-1.504l-8.42-12.63c-.399-.598-1.073-.959-1.795-.959h-8.625c-1.191,0-2.156.965-2.156,2.156v12.937c0,1.191.965,2.156,2.156,2.156h17.292c1.191,0,2.156-.965,2.156-2.156h0ZM94.855,75.485c-.965-3.709-4.312-6.468-8.317-6.468s-7.352,2.76-8.317,6.468c-.07.27-.129.539-.172.819-.075.437-.135.879-.135,1.337s.059.9.135,1.337c.043.28.102.55.172.819.965,3.709,4.312,6.468,8.317,6.468s7.352-2.76,8.317-6.468c.07-.27.129-.539.172-.819.075-.437.135-.879.135-1.337s-.059-.9-.135-1.337c-.043-.28-.102-.55-.172-.819Z"/>
</svg>