<?xml version="1.0" encoding="UTF-8"?>
<svg id="Layer_1" data-name="Layer 1" xmlns="http://www.w3.org/2000/svg" version="1.1" xmlns:cc="http://creativecommons.org/ns#" xmlns:dc="http://purl.org/dc/elements/1.1/" xmlns:inkscape="http://www.inkscape.org/namespaces/inkscape" xmlns:rdf="http://www.w3.org/1999/02/22-rdf-syntax-ns#" xmlns:sodipodi="http://sodipodi.sourceforge.net/DTD/sodipodi-0.dtd" xmlns:svg="http://www.w3.org/2000/svg" viewBox="0 0 100 100">
  <defs>
    <style>
      .cls-1 {
        fill: #000;
        stroke-width: 0px;
      }
    </style>
  </defs>
  <path class="cls-1" d="M71.908,96.824c-9.258,0-16.79-7.532-16.79-16.79,0-1.174.13-2.325.396-3.521l.044-.198-22.771-12.204-.171.123c-2.867,2.07-6.248,3.165-9.775,3.165-9.258,0-16.79-7.532-16.79-16.79s7.532-16.79,16.79-16.79c3.517,0,6.885,1.084,9.741,3.134l.17.123,22.806-13.426-.044-.198c-.267-1.207-.396-2.347-.396-3.486,0-9.258,7.532-16.79,16.79-16.79s16.791,7.532,16.791,16.79-7.532,16.79-16.791,16.79c-4.832,0-9.438-2.111-12.636-5.792l-.175-.201-21.265,12.329.113.233c1.102,2.265,1.685,4.784,1.685,7.285s-.572,5.007-1.653,7.25l-.112.233,21.233,11.111.176-.2c3.192-3.66,7.797-5.76,12.634-5.76,9.259,0,16.791,7.532,16.791,16.79s-7.532,16.79-16.791,16.79ZM71.908,71.081c-5.021,0-8.953,3.933-8.953,8.953s3.933,8.954,8.953,8.954,8.954-3.933,8.954-8.954-3.933-8.953-8.954-8.953ZM22.841,41.655c-5.021,0-8.954,3.933-8.954,8.954s3.933,8.954,8.954,8.954,8.954-3.933,8.954-8.954-3.933-8.954-8.954-8.954ZM71.908,11.012c-5.021,0-8.953,3.933-8.953,8.954s3.933,8.954,8.953,8.954,8.954-3.933,8.954-8.954-3.933-8.954-8.954-8.954Z"/>
</svg>