<?xml version="1.0" encoding="UTF-8"?>
<svg id="Layer_1" data-name="Layer 1" xmlns="http://www.w3.org/2000/svg" version="1.1" viewBox="0 0 100 100">
  <defs>
    <style>
      .cls-1 {
        fill: #fff;
        stroke-width: 0px;
      }
    </style>
  </defs>
  <path class="cls-1" d="M25.167,97.32c-8.236,0-14.936-6.044-14.936-13.473v-51.372c0-3.752,3.384-6.804,7.544-6.804h11.804v-7.271C29.579,8.255,38.74,0,50,0s20.421,8.255,20.421,18.401v7.271h11.803c4.16,0,7.545,3.052,7.545,6.804v51.372c0,7.429-6.707,13.473-14.95,13.473H25.167ZM19.629,33.954c-.081,0-.154.027-.211.078-.053.048-.082.11-.082.178l.073,49.633c0,2.855,2.583,5.177,5.757,5.177h49.654c3.175,0,5.757-2.321,5.757-5.175v-49.859c0-.046-.048-.085-.104-.085l-10.05.011v5.055c0,2.287-2.062,4.149-4.596,4.149s-4.596-1.861-4.596-4.149v-5.038l-22.458.024v5.014c0,2.287-2.062,4.149-4.596,4.149s-4.596-1.861-4.596-4.149v-5.013h-9.95ZM61.229,25.671v-7.271c0-5.571-5.038-10.103-11.229-10.103s-11.229,4.532-11.229,10.103v7.271h22.459Z"/>
</svg>