<?xml version="1.0" encoding="UTF-8"?>
<svg id="Layer_1" data-name="Layer 1" xmlns="http://www.w3.org/2000/svg" version="1.1" viewBox="0 0 100 100">
  <defs>
    <style>
      .cls-1 {
        fill: #fff;
        stroke-width: 0px;
      }
    </style>
  </defs>
  <path class="cls-1" d="M26.326,100h47.334c7.032,0,12.752-5.72,12.752-12.752v-54.38c0-3.141-2.55-5.692-5.692-5.692h-12.752v-9.207c0-9.914-8.055-17.968-17.968-17.968s-17.968,8.055-17.968,17.968v9.207h-12.752c-3.141,0-5.692,2.55-5.692,5.692v54.38c0,7.032,5.72,12.752,12.738,12.752ZM37.795,17.968c0-6.729,5.476-12.205,12.205-12.205s12.205,5.476,12.205,12.205v9.207h-24.409v-9.207ZM32.032,32.925v6.816c0,1.592,1.29,2.882,2.882,2.882h0c1.592,0,2.882-1.29,2.882-2.882v-6.816l24.409-.029v6.844c0,1.592,1.29,2.882,2.882,2.882h0c1.592,0,2.882-1.29,2.882-2.882v-6.859l11.079-.013c.884-.001,1.601.715,1.601,1.6v52.779c0,3.847-3.127,6.988-6.988,6.988H26.326c-3.847,0-6.988-3.127-6.988-6.988l-.07-52.541c-.001-.984.796-1.782,1.779-1.782h10.985Z"/>
</svg>