<?xml version="1.0" encoding="UTF-8"?>
<svg id="Layer_1" data-name="Layer 1" xmlns="http://www.w3.org/2000/svg" version="1.1" viewBox="0 0 100 100">
  <defs>
    <style>
      .cls-1 {
        fill: #000;
        stroke-width: 0px;
      }
    </style>
  </defs>
  <path class="cls-1" d="M27.702,92.658c-1.161,0-2.239-.466-3.034-1.312l-20.511-21.839c-1.423-1.516-1.403-3.87.047-5.36.737-.757,1.724-1.173,2.78-1.173s2.042.417,2.779,1.173l14.002,14.387V11.118c0-2.083,1.695-3.777,3.777-3.777s3.777,1.694,3.777,3.777v67.415l13.991-14.376c.739-.759,1.73-1.177,2.791-1.177s2.051.418,2.791,1.177c1.446,1.486,1.476,3.842.065,5.362l-20.201,21.805c-.797.86-1.882,1.334-3.054,1.334Z"/>
  <path class="cls-1" d="M72.442,92.659c-2.083,0-3.777-1.694-3.777-3.777V21.467l-14.002,14.386c-.736.757-1.724,1.173-2.779,1.173s-2.043-.417-2.779-1.173c-1.45-1.49-1.471-3.845-.048-5.36l20.512-21.838c.795-.847,1.872-1.313,3.034-1.313,1.172,0,2.257.474,3.054,1.334l20.201,21.804c1.409,1.521,1.38,3.877-.066,5.363-.739.76-1.73,1.178-2.79,1.178s-2.052-.418-2.791-1.178l-13.99-14.375v67.415c0,2.083-1.694,3.777-3.777,3.777Z"/>
</svg>