<?xml version="1.0" encoding="UTF-8"?>
<svg id="Layer_1" data-name="Layer 1" xmlns="http://www.w3.org/2000/svg" version="1.1" viewBox="0 0 124.736 119.747">
  <defs>
    <style>
      .cls-1 {
        fill: #e2bc36;
        stroke-width: 0px;
      }
    </style>
  </defs>
  <path class="cls-1" d="M114.975,37.15l-29.295-4.257-13.101-26.546h0c-4.176-8.464-16.244-8.464-20.421,0l-13.101,26.546-29.295,4.257c-9.339,1.357-13.068,12.835-6.31,19.422l21.198,20.664-5.004,29.177c-1.595,9.301,8.168,16.395,16.521,12.003l26.202-13.775,26.202,13.775c8.353,4.392,18.116-2.701,16.521-12.003l-5.004-29.177,21.198-20.663c6.759-6.588,3.029-18.065-6.31-19.422ZM88.676,70.205c-1.601,1.56-2.331,3.808-1.953,6.011l5.003,29.17-26.197-13.773c-1.979-1.04-4.342-1.04-6.321,0l-26.197,13.773,5.003-29.17c.378-2.203-.352-4.451-1.953-6.011l-21.194-20.662,29.289-4.256c2.212-.321,4.124-1.711,5.114-3.715l13.099-26.54,13.099,26.542c.989,2.005,2.902,3.394,5.114,3.715l29.29,4.256-21.194,20.661Z"/>
</svg>