<?xml version="1.0" encoding="UTF-8"?>
<svg id="Layer_1" data-name="Layer 1" xmlns="http://www.w3.org/2000/svg" version="1.1" viewBox="0 0 100 100">
  <defs>
    <style>
      .cls-1 {
        fill: #fff;
        stroke-width: 0px;
      }
    </style>
  </defs>
  <path class="cls-1" d="M92.4,25c-.1-2.1-1.1-4-2.6-5.4s-3.5-2.1-5.6-1.9c-2.1.1-4,1.1-5.3,2.6l-40,45-18.3-16.6c-1.5-1.4-3.5-2.1-5.6-2s-4,1-5.3,2.5c-1.4,1.5-2.1,3.5-2,5.6s1,4,2.5,5.3l24.1,21.9c1.4,1.3,3.3,2,5.2,2h.5c2-.1,3.9-1,5.4-2.6l45.2-50.9c1.2-1.5,1.9-3.5,1.8-5.5Z"/>
</svg>