<?xml version="1.0" encoding="UTF-8"?>
<svg id="Layer_1" data-name="Layer 1" xmlns="http://www.w3.org/2000/svg" version="1.1" viewBox="0 0 110 110">
  <defs>
    <style>
      .cls-1 {
        fill: #fff;
        stroke-width: 0px;
      }
    </style>
  </defs>
  <path class="cls-1" d="M66.923,12.741c-2.649-4.594-7.293-6.886-11.923-6.886s-9.273,2.292-11.923,6.886L4.955,78.759c-5.299,9.178,1.32,20.662,11.923,20.662h76.24c10.602,0,17.221-11.484,11.923-20.662L66.923,12.741ZM96.022,87.326c-.357.624-1.216,1.677-2.907,1.677H16.888c-1.691,0-2.545-1.053-2.907-1.677-.357-.624-.845-1.899,0-3.355L52.095,17.948c.845-1.46,2.188-1.677,2.907-1.677s2.062.222,2.907,1.677l38.114,66.018c.845,1.46.357,2.731,0,3.355v.005Z"/>
  <path class="cls-1" d="M55,65.956c2.503,0,4.526-2.023,4.526-4.526v-20.194c0-2.503-2.023-4.526-4.526-4.526s-4.526,2.023-4.526,4.526v20.194c0,2.503,2.023,4.526,4.526,4.526Z"/>
  <path class="cls-1" d="M55,69.739c-2.825,0-5.119,2.294-5.119,5.119s2.294,5.119,5.119,5.119,5.119-2.294,5.119-5.119-2.294-5.119-5.119-5.119Z"/>
</svg>